<?xml version="1.0" encoding="UTF-8" standalone="no"?>
<!-- Created with Inkscape (http://www.inkscape.org/) -->

<svg
   xmlns:dc="http://purl.org/dc/elements/1.1/"
   xmlns:cc="http://creativecommons.org/ns#"
   xmlns:rdf="http://www.w3.org/1999/02/22-rdf-syntax-ns#"
   xmlns:svg="http://www.w3.org/2000/svg"
   xmlns="http://www.w3.org/2000/svg"
   xmlns:sodipodi="http://sodipodi.sourceforge.net/DTD/sodipodi-0.dtd"
   xmlns:inkscape="http://www.inkscape.org/namespaces/inkscape"
   width="538.5827"
   height="386.22046"
   id="svg2"
   version="1.1"
   inkscape:version="0.48.4 r9939"
   sodipodi:docname="postcard_logo_v3_4_path.svg"
   inkscape:export-filename="/home/svet/Dropbox/falanster/design/postcards/for_falanster/postcard_logo_v3_4_path.png"
   inkscape:export-xdpi="299.9946"
   inkscape:export-ydpi="299.9946">
  <defs
     id="defs4" />
  <sodipodi:namedview
     id="base"
     pagecolor="#ffffff"
     bordercolor="#666666"
     borderopacity="1.0"
     inkscape:pageopacity="0.0"
     inkscape:pageshadow="2"
     inkscape:zoom="0.98994949"
     inkscape:cx="223.06871"
     inkscape:cy="183.62961"
     inkscape:document-units="px"
     inkscape:current-layer="layer1"
     showgrid="false"
     inkscape:window-width="1301"
     inkscape:window-height="744"
     inkscape:window-x="65"
     inkscape:window-y="24"
     inkscape:window-maximized="1"
     showguides="true"
     inkscape:guide-bbox="true"
     fit-margin-top="0"
     fit-margin-left="0"
     fit-margin-right="0"
     fit-margin-bottom="0">
    <sodipodi:guide
       orientation="0,1"
       position="285.81226,24.16239"
       id="guide2999" />
    <sodipodi:guide
       orientation="1,0"
       position="32.263966,445.396"
       id="guide3001" />
    <sodipodi:guide
       orientation="1,0"
       position="501.9849,312.05587"
       id="guide3003" />
    <sodipodi:guide
       orientation="0,1"
       position="258.85714,137.99995"
       id="guide2994" />
  </sodipodi:namedview>
  <metadata
     id="metadata7">
    <rdf:RDF>
      <cc:Work
         rdf:about="">
        <dc:format>image/svg+xml</dc:format>
        <dc:type
           rdf:resource="http://purl.org/dc/dcmitype/StillImage" />
        <dc:title />
      </cc:Work>
    </rdf:RDF>
  </metadata>
  <g
     inkscape:label="Layer 1"
     inkscape:groupmode="layer"
     id="layer1"
     transform="translate(6,-674.14163)">
    <path
       style="fill:#ffffff;fill-opacity:1;fill-rule:nonzero;stroke:none"
       d="m -6,674.14163 538.58268,0 0,386.22047 -538.58268,0 z"
       id="rect2985"
       inkscape:connector-curvature="0" />
    <g
       style="font-size:20.41827583px;font-style:normal;font-variant:normal;font-weight:normal;font-stretch:normal;line-height:125%;letter-spacing:0px;word-spacing:0px;fill:#808080;fill-opacity:1;stroke:none;font-family:Ubuntu;-inkscape-font-specification:Ubuntu"
       id="text2995">
      <path
         d="m 392.6943,906.51754 c 0.55809,2e-5 1.03452,0.0408 1.42928,0.12251 0.40835,0.0817 0.69421,0.15655 0.85756,0.2246 l -0.34711,1.63346 c -0.16335,-0.0817 -0.39476,-0.15652 -0.69422,-0.2246 -0.29947,-0.0817 -0.667,-0.12249 -1.10259,-0.12251 -0.88479,2e-5 -1.50415,0.24503 -1.85806,0.73506 -0.35392,0.47644 -0.53088,1.12302 -0.53087,1.93974 l 0,0.91882 4.08365,0 0,1.59262 -4.08365,0 0,9.02488 -1.8989,0 0,-11.57716 c -1e-5,-1.36121 0.33349,-2.40934 1.00049,-3.14442 0.667,-0.74865 1.71513,-1.12298 3.14442,-1.123"
         style="fill:#808080;font-family:Ubuntu;-inkscape-font-specification:Ubuntu"
         id="path3014"
         inkscape:connector-curvature="0" />
      <path
         d="m 400.03913,920.9941 c 0.4492,0 0.84395,-0.007 1.18426,-0.0204 0.35391,-0.0272 0.64657,-0.0681 0.87799,-0.12251 l 0,-3.16483 c -0.13613,-0.0681 -0.36073,-0.12251 -0.6738,-0.16335 -0.29948,-0.0544 -0.66701,-0.0817 -1.10259,-0.0817 -0.28586,0 -0.59214,0.0204 -0.91882,0.0612 -0.31309,0.0408 -0.60575,0.12932 -0.87799,0.26544 -0.25863,0.12251 -0.47643,0.29947 -0.65338,0.53087 -0.17697,0.2178 -0.26544,0.51047 -0.26544,0.87799 0,0.68061 0.21779,1.15704 0.65338,1.42928 0.43559,0.25863 1.02772,0.38795 1.77639,0.38795 m -0.16334,-9.51492 c 0.76227,1e-5 1.40205,0.1021 1.91931,0.30627 0.53087,0.19059 0.95285,0.46964 1.26594,0.83715 0.32668,0.35393 0.55809,0.78271 0.69422,1.28636 0.13611,0.49004 0.20417,1.03453 0.20418,1.63346 l 0,6.63594 c -0.16335,0.0272 -0.39476,0.0681 -0.69422,0.12251 -0.28586,0.0408 -0.61256,0.0817 -0.98008,0.12251 -0.36753,0.0408 -0.76909,0.0749 -1.20468,0.10209 -0.42198,0.0408 -0.84396,0.0612 -1.26593,0.0612 -0.59894,0 -1.15023,-0.0612 -1.65388,-0.18376 -0.50365,-0.12251 -0.93924,-0.31308 -1.30677,-0.57171 -0.36753,-0.27225 -0.65338,-0.62616 -0.85757,-1.06175 -0.20418,-0.43559 -0.30627,-0.95966 -0.30627,-1.57221 0,-0.58532 0.1157,-1.08897 0.34711,-1.51095 0.24502,-0.42198 0.57171,-0.76228 0.98008,-1.02092 0.40836,-0.25862 0.88479,-0.44919 1.42928,-0.57171 0.54448,-0.1225 1.11619,-0.18376 1.71513,-0.18376 0.19057,0 0.38794,0.0136 0.59213,0.0408 0.20418,0.0136 0.39475,0.0408 0.57171,0.0817 0.19057,0.0272 0.35391,0.0544 0.49004,0.0817 0.13612,0.0272 0.2314,0.0476 0.28586,0.0612 l 0,-0.53087 c -1e-5,-0.31307 -0.034,-0.61935 -0.10209,-0.91882 -0.0681,-0.31308 -0.19058,-0.58532 -0.36753,-0.81673 -0.17697,-0.24502 -0.42199,-0.43559 -0.73506,-0.57172 -0.29947,-0.14972 -0.69423,-0.22459 -1.18426,-0.2246 -0.62616,1e-5 -1.17746,0.0476 -1.65388,0.14293 -0.46282,0.0817 -0.80993,0.17016 -1.04133,0.26544 l -0.2246,-1.57221 c 0.24501,-0.10889 0.65338,-0.21098 1.22509,-0.30627 0.57171,-0.10889 1.19107,-0.16334 1.85807,-0.16335"
         style="fill:#808080;font-family:Ubuntu;-inkscape-font-specification:Ubuntu"
         id="path3016"
         inkscape:connector-curvature="0" />
      <path
         d="m 410.27858,922.5663 c -1.17065,-0.0272 -2.001,-0.27905 -2.49103,-0.75547 -0.49004,-0.47643 -0.73506,-1.21829 -0.73506,-2.22559 l 0,-12.74101 1.8989,-0.32669 0,12.76142 c 0,0.31308 0.0272,0.57172 0.0817,0.7759 0.0545,0.20418 0.14293,0.36753 0.26544,0.49004 0.12251,0.12251 0.28585,0.21779 0.49004,0.28585 0.20418,0.0545 0.456,0.10209 0.75548,0.14293 l -0.26544,1.59262"
         style="fill:#808080;font-family:Ubuntu;-inkscape-font-specification:Ubuntu"
         id="path3018"
         inkscape:connector-curvature="0" />
      <path
         d="m 416.27007,920.9941 c 0.44919,0 0.84395,-0.007 1.18426,-0.0204 0.35391,-0.0272 0.64657,-0.0681 0.87798,-0.12251 l 0,-3.16483 c -0.13613,-0.0681 -0.36073,-0.12251 -0.6738,-0.16335 -0.29948,-0.0544 -0.667,-0.0817 -1.10259,-0.0817 -0.28586,0 -0.59213,0.0204 -0.91882,0.0612 -0.31308,0.0408 -0.60575,0.12932 -0.87799,0.26544 -0.25863,0.12251 -0.47643,0.29947 -0.65338,0.53087 -0.17696,0.2178 -0.26544,0.51047 -0.26544,0.87799 0,0.68061 0.21779,1.15704 0.65339,1.42928 0.43558,0.25863 1.02771,0.38795 1.77639,0.38795 m -0.16335,-9.51492 c 0.76228,1e-5 1.40205,0.1021 1.91932,0.30627 0.53087,0.19059 0.95284,0.46964 1.26593,0.83715 0.32669,0.35393 0.55809,0.78271 0.69422,1.28636 0.13612,0.49004 0.20418,1.03453 0.20419,1.63346 l 0,6.63594 c -0.16336,0.0272 -0.39477,0.0681 -0.69423,0.12251 -0.28586,0.0408 -0.61255,0.0817 -0.98007,0.12251 -0.36754,0.0408 -0.7691,0.0749 -1.20468,0.10209 -0.42199,0.0408 -0.84396,0.0612 -1.26593,0.0612 -0.59895,0 -1.15024,-0.0612 -1.65388,-0.18376 -0.50366,-0.12251 -0.93925,-0.31308 -1.30677,-0.57171 -0.36754,-0.27225 -0.65339,-0.62616 -0.85757,-1.06175 -0.20419,-0.43559 -0.30628,-0.95966 -0.30628,-1.57221 0,-0.58532 0.11571,-1.08897 0.34711,-1.51095 0.24502,-0.42198 0.57171,-0.76228 0.98008,-1.02092 0.40836,-0.25862 0.88479,-0.44919 1.42928,-0.57171 0.54448,-0.1225 1.1162,-0.18376 1.71514,-0.18376 0.19056,0 0.38794,0.0136 0.59213,0.0408 0.20417,0.0136 0.39474,0.0408 0.57171,0.0817 0.19056,0.0272 0.35391,0.0544 0.49004,0.0817 0.13611,0.0272 0.2314,0.0476 0.28585,0.0612 l 0,-0.53087 c 0,-0.31307 -0.034,-0.61935 -0.10209,-0.91882 -0.0681,-0.31308 -0.19058,-0.58532 -0.36753,-0.81673 -0.17696,-0.24502 -0.42198,-0.43559 -0.73506,-0.57172 -0.29947,-0.14972 -0.69422,-0.22459 -1.18426,-0.2246 -0.62616,1e-5 -1.17745,0.0476 -1.65388,0.14293 -0.46281,0.0817 -0.80992,0.17016 -1.04133,0.26544 l -0.2246,-1.57221 c 0.24502,-0.10889 0.65338,-0.21098 1.2251,-0.30627 0.57171,-0.10889 1.19106,-0.16334 1.85806,-0.16335"
         style="fill:#808080;font-family:Ubuntu;-inkscape-font-specification:Ubuntu"
         id="path3020"
         inkscape:connector-curvature="0" />
      <path
         d="m 423.32426,912.05089 c 0.43559,-0.10888 1.01411,-0.22459 1.73556,-0.34711 0.72144,-0.1225 1.55178,-0.18375 2.49102,-0.18376 0.84395,10e-6 1.54498,0.12252 2.10309,0.36753 0.55809,0.23141 1.00048,0.56491 1.32719,1.00049 0.34029,0.42199 0.5785,0.93244 0.71463,1.53137 0.13612,0.59895 0.20418,1.25914 0.20419,1.98058 l 0,5.96213 -1.8989,0 0,-5.55377 c -10e-6,-0.65338 -0.0476,-1.21148 -0.14293,-1.6743 -0.0817,-0.4628 -0.22461,-0.83714 -0.42878,-1.123 -0.20419,-0.28585 -0.47644,-0.49003 -0.81673,-0.61255 -0.34032,-0.13611 -0.76229,-0.20418 -1.26594,-0.20418 -0.20419,0 -0.41517,0.007 -0.63296,0.0204 -0.2178,0.0136 -0.42879,0.034 -0.63297,0.0613 -0.19058,0.0136 -0.36753,0.034 -0.53088,0.0612 -0.14973,0.0272 -0.25863,0.0477 -0.32669,0.0613 l 0,8.96362 -1.8989,0 0,-10.31123"
         style="fill:#808080;font-family:Ubuntu;-inkscape-font-specification:Ubuntu"
         id="path3022"
         inkscape:connector-curvature="0" />
      <path
         d="m 437.51943,920.9941 c 0.77589,0 1.3476,-0.10209 1.71513,-0.30628 0.38114,-0.20418 0.57171,-0.53087 0.57172,-0.98007 -1e-5,-0.46282 -0.18377,-0.83034 -0.5513,-1.10259 -0.36753,-0.27224 -0.97327,-0.57851 -1.81722,-0.91882 -0.40837,-0.16334 -0.80313,-0.32669 -1.18426,-0.49004 -0.36754,-0.17696 -0.68742,-0.38114 -0.95966,-0.61255 -0.27225,-0.2314 -0.49004,-0.51045 -0.65339,-0.83715 -0.16335,-0.32669 -0.24502,-0.72824 -0.24502,-1.20468 0,-0.93923 0.34711,-1.68109 1.04133,-2.22559 0.69422,-0.55809 1.64027,-0.83714 2.83815,-0.83715 0.29946,10e-6 0.59893,0.0204 0.8984,0.0613 0.29946,0.0272 0.57851,0.0681 0.83715,0.12251 0.25862,0.0408 0.48322,0.0885 0.6738,0.14292 0.20418,0.0545 0.36072,0.1021 0.46962,0.14293 l -0.34711,1.63346 c -0.20419,-0.10889 -0.52407,-0.21778 -0.95966,-0.32669 -0.43559,-0.1225 -0.95966,-0.18375 -1.5722,-0.18376 -0.53088,10e-6 -0.9937,0.1089 -1.38845,0.32669 -0.39475,0.20419 -0.59213,0.53088 -0.59213,0.98008 0,0.23141 0.0408,0.43559 0.12251,0.61254 0.0953,0.17697 0.23141,0.34032 0.40837,0.49004 0.19056,0.13613 0.42197,0.26545 0.69422,0.38795 0.27224,0.12252 0.59893,0.25183 0.98008,0.38795 0.50364,0.19057 0.95284,0.38114 1.3476,0.57171 0.39475,0.17696 0.72825,0.38795 1.0005,0.63297 0.28585,0.24502 0.50364,0.54449 0.65338,0.8984 0.14973,0.34031 0.2246,0.76229 0.2246,1.26593 0,0.98008 -0.36753,1.72194 -1.10258,2.22559 -0.72146,0.50366 -1.75598,0.75548 -3.10358,0.75548 -0.93924,0 -1.6743,-0.0817 -2.20517,-0.24502 -0.53088,-0.14973 -0.8916,-0.26544 -1.08217,-0.34711 l 0.34711,-1.63346 c 0.21779,0.0817 0.5649,0.20418 1.04133,0.36753 0.47642,0.16335 1.10939,0.24502 1.8989,0.24502"
         style="fill:#808080;font-family:Ubuntu;-inkscape-font-specification:Ubuntu"
         id="path3024"
         inkscape:connector-curvature="0" />
      <path
         d="m 445.91772,911.74462 4.0224,0 0,1.59262 -4.0224,0 0,4.90039 c 0,0.53088 0.0408,0.97327 0.12251,1.32719 0.0817,0.3403 0.20418,0.61255 0.36753,0.81673 0.16334,0.19057 0.36753,0.32669 0.61255,0.40836 0.24501,0.0817 0.53087,0.12252 0.85757,0.12251 0.5717,10e-6 1.02771,-0.0612 1.36802,-0.18376 0.35391,-0.13612 0.59893,-0.23141 0.73506,-0.28586 l 0.36753,1.57221 c -0.19058,0.0953 -0.52408,0.21099 -1.0005,0.34711 -0.47643,0.14974 -1.02092,0.2246 -1.63346,0.2246 -0.72145,0 -1.32039,-0.0885 -1.79681,-0.26543 -0.46282,-0.19058 -0.83715,-0.46962 -1.123,-0.83715 -0.28586,-0.36753 -0.49004,-0.81673 -0.61255,-1.34761 -0.1089,-0.54449 -0.16335,-1.17064 -0.16335,-1.87848 l 0,-9.47408 1.8989,-0.32669 0,3.28734"
         style="fill:#808080;font-family:Ubuntu;-inkscape-font-specification:Ubuntu"
         id="path3026"
         inkscape:connector-curvature="0" />
      <path
         d="m 451.56497,917.07379 c 0,-0.93924 0.13612,-1.75597 0.40837,-2.45019 0.27224,-0.70783 0.63296,-1.29315 1.08217,-1.75598 0.44919,-0.4628 0.96646,-0.80991 1.55178,-1.04133 0.58532,-0.2314 1.18426,-0.3471 1.79681,-0.34711 1.42928,10e-6 2.52505,0.44921 3.28735,1.34761 0.76227,0.8848 1.14341,2.23921 1.14342,4.06323 -1e-5,0.0817 -1e-5,0.19058 0,0.3267 -1e-5,0.12251 -0.007,0.23821 -0.0204,0.34711 l -7.26891,0 c 0.0817,1.10259 0.40156,1.93974 0.95966,2.51144 0.5581,0.57172 1.42928,0.85757 2.61354,0.85757 0.66699,0 1.22509,-0.0544 1.6743,-0.16334 0.46281,-0.12251 0.80992,-0.23822 1.04133,-0.34711 l 0.26544,1.59262 c -0.23142,0.12251 -0.63978,0.25183 -1.2251,0.38795 -0.57172,0.13612 -1.2251,0.20418 -1.96015,0.20418 -0.92563,0 -1.72875,-0.13612 -2.40936,-0.40836 -0.667,-0.28586 -1.21829,-0.67381 -1.65388,-1.16385 -0.43559,-0.49003 -0.76228,-1.06855 -0.98007,-1.73555 -0.20419,-0.68061 -0.30628,-1.42247 -0.30628,-2.22559 m 7.28933,-1.04133 c 0.0136,-0.85756 -0.20419,-1.55859 -0.65339,-2.10309 -0.4356,-0.55809 -1.04134,-0.83714 -1.81723,-0.83715 -0.43559,10e-6 -0.82354,0.0885 -1.16384,0.26544 -0.32669,0.16336 -0.60574,0.38115 -0.83715,0.65339 -0.23141,0.27225 -0.41517,0.58533 -0.55129,0.93924 -0.12251,0.35392 -0.20419,0.71464 -0.24502,1.08217 l 5.26792,0"
         style="fill:#808080;font-family:Ubuntu;-inkscape-font-specification:Ubuntu"
         id="path3028"
         inkscape:connector-curvature="0" />
      <path
         d="m 467.48293,911.52002 c 0.16334,10e-6 0.34711,0.0136 0.5513,0.0408 0.21778,0.0136 0.42877,0.0409 0.63296,0.0817 0.20418,0.0272 0.38794,0.0613 0.5513,0.10209 0.17695,0.0272 0.30626,0.0545 0.38794,0.0817 l -0.32669,1.65388 c -0.14974,-0.0544 -0.40157,-0.11569 -0.75548,-0.18376 -0.34031,-0.0817 -0.7827,-0.1225 -1.32718,-0.12251 -0.35393,1e-5 -0.70784,0.0408 -1.06175,0.12251 -0.34031,0.0681 -0.56491,0.11571 -0.67381,0.14293 l 0,8.92278 -1.8989,0 0,-10.1683 c 0.4492,-0.16334 1.0073,-0.31307 1.6743,-0.4492 0.66699,-0.14973 1.41566,-0.22459 2.24601,-0.2246"
         style="fill:#808080;font-family:Ubuntu;-inkscape-font-specification:Ubuntu"
         id="path3030"
         inkscape:connector-curvature="0" />
      <path
         d="m 472.58814,921.25953 c -1e-5,0.36753 -0.12252,0.68742 -0.36753,0.95966 -0.24503,0.27225 -0.57852,0.40837 -1.0005,0.40837 -0.42198,0 -0.75548,-0.13612 -1.00049,-0.40837 -0.24502,-0.27224 -0.36753,-0.59213 -0.36753,-0.95966 0,-0.36752 0.12251,-0.68741 0.36753,-0.95965 0.24501,-0.27225 0.57851,-0.40837 1.00049,-0.40837 0.42198,0 0.75547,0.13612 1.0005,0.40837 0.24501,0.27224 0.36752,0.59213 0.36753,0.95965"
         style="fill:#808080;font-family:Ubuntu;-inkscape-font-specification:Ubuntu"
         id="path3032"
         inkscape:connector-curvature="0" />
      <path
         d="m 477.26584,912.21424 c 0.2314,-0.14973 0.57851,-0.30627 1.04133,-0.46962 0.47642,-0.16334 1.02091,-0.24501 1.63346,-0.24502 0.76228,10e-6 1.43608,0.13613 2.02141,0.40836 0.59893,0.27226 1.10258,0.6534 1.51095,1.14343 0.40836,0.49005 0.71463,1.07537 0.91882,1.75597 0.21779,0.68062 0.32669,1.42928 0.3267,2.24601 -10e-6,0.85757 -0.12933,1.63347 -0.38795,2.32768 -0.24503,0.68061 -0.59895,1.25913 -1.06175,1.73556 -0.46282,0.47642 -1.02092,0.84395 -1.6743,1.10258 -0.65339,0.25864 -1.38845,0.38795 -2.20517,0.38795 -0.8848,0 -1.6675,-0.0612 -2.3481,-0.18376 -0.68062,-0.12251 -1.23872,-0.24502 -1.6743,-0.36753 l 0,-15.21162 1.8989,-0.32669 0,5.6967 m 0,8.494 c 0.19056,0.0544 0.456,0.1089 0.79631,0.16335 0.35391,0.0408 0.7895,0.0613 1.30677,0.0613 1.02091,0 1.83764,-0.33349 2.45019,-1.00049 0.61254,-0.68061 0.91882,-1.64027 0.91882,-2.87898 0,-0.54448 -0.0545,-1.05494 -0.16334,-1.53137 -0.10891,-0.47642 -0.28587,-0.88479 -0.53088,-1.2251 -0.24502,-0.35391 -0.56491,-0.62615 -0.95966,-0.81673 -0.38114,-0.20417 -0.84396,-0.30626 -1.38844,-0.30627 -0.51727,10e-6 -0.99369,0.0885 -1.42928,0.26544 -0.43559,0.17696 -0.76909,0.36073 -1.00049,0.55129 l 0,6.71761"
         style="fill:#808080;font-family:Ubuntu;-inkscape-font-specification:Ubuntu"
         id="path3034"
         inkscape:connector-curvature="0" />
      <path
         d="m 485.88586,924.34269 c 0.14973,0.0681 0.3403,0.12932 0.57171,0.18377 0.24502,0.0681 0.48323,0.10209 0.71464,0.10209 0.74867,0 1.33399,-0.17015 1.75597,-0.51046 0.42197,-0.32669 0.80311,-0.86437 1.14342,-1.61304 -0.85757,-1.63346 -1.66069,-3.36221 -2.40935,-5.18624 -0.73506,-1.83764 -1.34761,-3.6957 -1.83765,-5.57419 l 2.04183,0 c 0.14973,0.61256 0.32669,1.27275 0.53087,1.98057 0.2178,0.70784 0.45601,1.43609 0.71464,2.18476 0.25863,0.74867 0.53768,1.49734 0.83715,2.24601 0.29947,0.74867 0.61255,1.47012 0.93924,2.16433 0.51726,-1.42927 0.96646,-2.84494 1.34761,-4.247 0.38113,-1.40204 0.74186,-2.84493 1.08217,-4.32867 l 1.96015,0 c -0.49004,2.001 -1.03453,3.92712 -1.63346,5.77837 -0.59894,1.83765 -1.24552,3.55959 -1.93973,5.16582 -0.27225,0.61255 -0.55811,1.13662 -0.85757,1.57221 -0.28586,0.4492 -0.60575,0.81673 -0.95966,1.10259 -0.35392,0.28585 -0.75548,0.49684 -1.20468,0.63296 -0.43559,0.13612 -0.93244,0.20418 -1.49053,0.20419 -0.14974,-10e-6 -0.30628,-0.0136 -0.46962,-0.0408 -0.16335,-0.0136 -0.3267,-0.0408 -0.49004,-0.0817 -0.14974,-0.0272 -0.29266,-0.0613 -0.42879,-0.10209 -0.12251,-0.0408 -0.21099,-0.0749 -0.26543,-0.10209 l 0.34711,-1.53138"
         style="fill:#808080;font-family:Ubuntu;-inkscape-font-specification:Ubuntu"
         id="path3036"
         inkscape:connector-curvature="0" />
    </g>
    <g
       style="font-size:100.26876068px;font-style:normal;font-variant:normal;font-weight:600;font-stretch:normal;line-height:125%;letter-spacing:0px;word-spacing:0px;fill:#d40000;fill-opacity:1;stroke:none;font-family:a_AlternaBrk;-inkscape-font-specification:a_AlternaBrk Semi-Bold"
       id="text2988">
      <path
         d="m 73.691089,847.16152 -1.102956,0.90242 0,22.56047 6.116394,0 6.417201,-12.73413 -9.525532,-10.52822 -1.905107,-0.20054 m -14.438701,-22.25966 -2.005375,-0.10027 16.644614,1.50403 0,8.22204 4.913169,-1.50403 16.945421,6.61774 3.409138,19.15133 -5.414513,20.75563 -14.037627,4.11102 -8.322307,0.50134 2.506719,10.72876 -17.446764,0 0,-10.72876 -6.417201,-0.40107 -13.436014,-6.61774 -6.617738,-18.54972 5.514782,-17.44676 16.243539,-7.52016 4.8129,0 2.707257,-8.72338 m 0,22.4602 0,0.30081 -6.718007,-0.80215 -8.92392,13.03493 8.422576,12.5336 6.718007,-2.70726 -0.902419,-9.52553 1.403763,-12.8344"
         id="path3039"
         inkscape:connector-curvature="0" />
      <path
         d="m 120.90122,870.62441 -0.10026,-1.00269 10.92929,0 1.20323,-18.14864 -6.61774,-16.84515 -3.60968,17.44676 -1.80484,18.54972 m 0.20054,24.76639 0.20054,-1.50404 -14.33843,0.90242 -1.80484,-14.03762 3.00806,-17.44677 1.50403,-16.64461 4.71264,-11.12983 5.51478,-11.73145 14.83977,0 6.4172,12.93467 3.30887,10.02688 1.50404,17.74757 1.10295,16.64461 0,13.13521 -12.73413,2.30618 0,-13.73682 -11.83171,-2.40645 -1.40377,14.94005"
         id="path3041"
         inkscape:connector-curvature="0" />
      <path
         d="m 183.87236,895.89214 0,-0.70188 0,-12.8344 1.10295,-10.62849 -1.80484,-11.93198 2.10565,-10.62849 -1.10296,-12.8344 -6.61774,10.52822 -4.61236,13.03493 0,36.79864 -16.14327,-2.60699 -1.10296,-8.0215 0,-24.16477 5.21398,-17.24623 8.42258,-9.72607 9.9266,-8.92392 21.25698,-2.40645 -1.40376,13.13521 0,11.2301 -1.40377,12.03225 2.60699,11.02957 -2.00537,11.43064 1.00269,12.63386 -15.44139,0.80215"
         id="path3043"
         inkscape:connector-curvature="0" />
      <path
         d="m 223.61795,870.62441 -0.10027,-1.00269 10.9293,0 1.20322,-18.14864 -6.61773,-16.84515 -3.60968,17.44676 -1.80484,18.54972 m 0.20054,24.76639 0.20054,-1.50404 -14.33843,0.90242 -1.80484,-14.03762 3.00806,-17.44677 1.50403,-16.64461 4.71263,-11.12983 5.51479,-11.73145 14.83977,0 6.4172,12.93467 3.30887,10.02688 1.50403,17.74757 1.10296,16.64461 0,13.13521 -12.73413,2.30618 0,-13.73682 -11.83172,-2.40645 -1.40376,14.94005"
         id="path3045"
         inkscape:connector-curvature="0" />
      <path
         d="m 260.32101,895.89214 0.30081,-1.90511 0.60161,-9.6258 -1.20322,-13.53628 -0.80215,-11.53091 1.80484,-11.53091 -0.70189,-11.2301 0,-13.03494 16.14327,0.90242 -1.80483,12.5336 2.10564,13.63655 10.62849,-1.30349 0,-25.46827 15.7422,0 0,14.23816 -1.00269,9.12446 -1.10296,14.23817 0,21.1567 2.50672,14.03763 -15.34112,0 0,-13.33574 -0.90242,-9.325 0,-11.2301 -13.13521,0 2.60699,10.32768 -2.00537,10.42795 1.00268,11.63118 -15.44139,0.80215"
         id="path3047"
         inkscape:connector-curvature="0" />
      <path
         d="m 355.20034,853.27792 0,-0.70188 -15.04031,-1.3035 0.70188,-7.82096 -7.7207,-6.91855 -3.91048,7.01882 -1.10295,9.82634 0,22.25966 6.718,6.51747 6.1164,-4.61236 -1.20323,-14.63924 14.33844,2.50672 0,6.718 -4.21129,17.94811 -14.63924,7.41989 -16.64462,-5.31424 -4.41182,-20.95618 -1.40376,-11.02956 0,-12.93467 3.40913,-18.14864 19.05107,-5.81559 14.53897,4.8129 5.81559,19.35187 -0.40108,5.81559"
         id="path3049"
         inkscape:connector-curvature="0" />
      <path
         d="m 368.78595,838.33787 -0.10027,-1.80484 -10.12714,1.50403 -0.80215,-14.23816 13.23547,0 12.23279,2.50672 10.9293,-2.60699 -1.10296,15.34112 -10.42795,-1.70457 0,10.9293 2.30618,13.83709 0,20.35456 -1.20322,12.93467 -15.44139,0 -1.10296,-11.73145 2.60699,-12.23279 -2.00538,-11.73144 1.00269,-10.62849 0,-10.72876"
         id="path3051"
         inkscape:connector-curvature="0" />
      <path
         d="m 401.71093,869.12038 0.20054,1.40376 14.94004,-0.80215 -1.00268,5.71532 6.81827,7.11908 4.21129,-6.31693 0,-11.2301 -12.03225,-2.10564 0,-10.9293 14.73951,-1.30349 -2.70726,-7.11908 -6.11639,-5.41452 -5.01344,5.01344 1.20322,2.10565 -16.24354,0 4.71264,-15.64193 16.44407,-5.91586 15.24085,4.71263 7.62043,17.94811 -1.40376,13.93736 0,10.72876 -5.41452,19.85321 -15.84246,4.31156 -16.94542,-5.11371 -5.41451,-17.34649 2.00537,-3.60968"
         id="path3053"
         inkscape:connector-curvature="0" />
      <path
         d="m 468.75313,863.70587 -0.20054,-0.50135 5.71532,0 5.81559,-12.8344 -6.4172,-13.03494 -5.91586,-0.3008 1.00269,13.33574 0,13.33575 m -13.53628,30.28116 -1.20323,-0.10027 0.70189,-10.82902 -1.80484,-12.03225 2.10564,-10.82903 -1.10296,-13.03494 0,-23.36262 20.35456,0 13.33575,4.91317 6.31693,5.51478 1.30349,17.3465 -4.71263,17.54703 -14.63924,6.1164 -6.11639,1.70456 0,19.45214 -14.53897,-2.40645"
         id="path3055"
         inkscape:connector-curvature="0" />
    </g>
    <g
       style="font-size:25.53344536px;font-style:normal;font-variant:normal;font-weight:normal;font-stretch:normal;line-height:125%;letter-spacing:0px;word-spacing:0px;fill:#00d4aa;fill-opacity:1;stroke:none;font-family:Ubuntu Mono;-inkscape-font-specification:Ubuntu Mono"
       id="text2990">
      <path
         d="m 29.663966,908.88126 0,4.15 1.65,0 c 0.983327,10e-6 1.858326,0.0833 2.625,0.25 0.783324,0.16668 1.441657,0.44168 1.975,0.825 0.533323,0.36668 0.933322,0.85834 1.2,1.475 0.283322,0.61668 0.424988,1.36667 0.425,2.25 -1.2e-5,1.65001 -0.533344,2.88334 -1.6,3.7 -1.050009,0.8 -2.566674,1.2 -4.55,1.2 -0.583338,0 -1.225004,-0.025 -1.925,-0.075 -0.683336,-0.05 -1.300002,-0.15 -1.85,-0.3 l 0,-15.225 8.55,0 0,1.75 -6.5,0 m 1.825,12.125 c 0.56666,0 1.09166,-0.05 1.575,-0.15 0.483326,-0.11666 0.899992,-0.29166 1.25,-0.525 0.366658,-0.25 0.649991,-0.57499 0.85,-0.975 0.216657,-0.39999 0.32499,-0.89999 0.325,-1.5 -10e-6,-0.61666 -0.10001,-1.12499 -0.3,-1.525 -0.200009,-0.41666 -0.491675,-0.74166 -0.875,-0.975 -0.366675,-0.23332 -0.816674,-0.39999 -1.35,-0.5 -0.516673,-0.1 -1.100006,-0.14999 -1.75,-0.15 l -1.55,0 0,6.2 c 0.433329,0.05 0.766662,0.0833 1,0.1 0.249995,0 0.524995,0 0.825,0"
         style="font-size:25px;fill:#00d4aa"
         id="path3058"
         inkscape:connector-curvature="0" />
      <path
         d="m 40.038966,924.78126 c 0.149998,0.0833 0.358331,0.15 0.625,0.2 0.283331,0.05 0.541664,0.075 0.775,0.075 0.816663,0 1.449995,-0.18333 1.9,-0.55 0.466661,-0.35 0.891661,-0.93333 1.275,-1.75 -0.933339,-1.76666 -1.808338,-3.65833 -2.625,-5.675 -0.816669,-2.03332 -1.491669,-4.05832 -2.025,-6.075 l 2.25,0 c 0.166663,0.66668 0.358329,1.39168 0.575,2.175 0.233329,0.76668 0.491662,1.55834 0.775,2.375 0.283328,0.81668 0.583328,1.64167 0.9,2.475 0.333327,0.81667 0.683327,1.60001 1.05,2.35 0.266659,-0.76666 0.516659,-1.52499 0.75,-2.275 0.233325,-0.74999 0.449992,-1.49999 0.65,-2.25 0.199991,-0.76666 0.399991,-1.54166 0.6,-2.325 0.199991,-0.79999 0.408324,-1.64165 0.625,-2.525 l 2.15,0 c -0.533345,2.16668 -1.133344,4.26668 -1.8,6.3 -0.650009,2.03334 -1.350009,3.91667 -2.1,5.65 -0.283341,0.66667 -0.591674,1.24167 -0.925,1.725 -0.316673,0.48333 -0.666673,0.88333 -1.05,1.2 -0.383339,0.31667 -0.816672,0.55 -1.3,0.7 -0.483338,0.15 -1.033337,0.225 -1.65,0.225 -0.316669,0 -0.666669,-0.0417 -1.05,-0.125 -0.366668,-0.0833 -0.616668,-0.15834 -0.75,-0.225 l 0.375,-1.675"
         style="font-size:25px;fill:#00d4aa"
         id="path3060"
         inkscape:connector-curvature="0" />
      <path
         d="m 51.938966,920.85626 0.9,0 c 0.499998,-0.71666 0.891664,-1.44999 1.175,-2.2 0.28333,-0.74999 0.491663,-1.52499 0.625,-2.325 0.149996,-0.81666 0.249996,-1.65832 0.3,-2.525 0.05,-0.88332 0.08333,-1.81665 0.1,-2.8 l 6.85,0 0,9.85 0.975,0 0,4.975 -1.95,0 0,-3.225 -7.025,0 0,3.225 -1.95,0 0,-4.975 m 7.9,0 0,-8.125 -2.825,0 c -6e-6,0.66668 -0.03334,1.37501 -0.1,2.125 -0.06667,0.73334 -0.183339,1.45834 -0.35,2.175 -0.150006,0.71667 -0.358339,1.40834 -0.625,2.075 -0.266671,0.65001 -0.591671,1.23334 -0.975,1.75 l 4.875,0"
         style="font-size:25px;fill:#00d4aa"
         id="path3062"
         inkscape:connector-curvature="0" />
      <path
         d="m 65.913966,911.30626 c 0.549997,-0.18332 1.149996,-0.32499 1.8,-0.425 0.666662,-0.11665 1.324994,-0.17499 1.975,-0.175 0.633326,10e-6 1.241659,0.0583 1.825,0.175 0.583325,0.10001 1.099991,0.28335 1.55,0.55 0.44999,0.26668 0.808323,0.61668 1.075,1.05 0.266656,0.41668 0.399989,0.94168 0.4,1.575 -1.1e-5,0.30001 -0.05834,0.58334 -0.175,0.85 -0.116678,0.26668 -0.266677,0.50834 -0.45,0.725 -0.183344,0.21668 -0.383343,0.40001 -0.6,0.55 -0.20001,0.15001 -0.40001,0.25834 -0.6,0.325 0.633323,0.23334 1.158323,0.57501 1.575,1.025 0.433322,0.43334 0.649988,1.05001 0.65,1.85 -1.2e-5,1.11667 -0.475011,1.98334 -1.425,2.6 -0.933343,0.6 -2.208341,0.9 -3.825,0.9 -1.000005,0 -1.866671,-0.075 -2.6,-0.225 -0.71667,-0.15 -1.225002,-0.29166 -1.525,-0.425 l 0.425,-1.75 c 0.249997,0.0833 0.699997,0.20834 1.35,0.375 0.649995,0.15 1.433328,0.225 2.35,0.225 1.099993,0 1.899992,-0.15833 2.4,-0.475 0.499991,-0.31666 0.749991,-0.74166 0.75,-1.275 -9e-6,-0.59999 -0.250009,-1.07499 -0.75,-1.425 -0.500008,-0.34999 -1.175008,-0.52499 -2.025,-0.525 l -2.45,0 0,-1.65 2.3,0 c 0.849993,10e-6 1.483325,-0.14166 1.9,-0.425 0.416658,-0.28332 0.624991,-0.66666 0.625,-1.15 -9e-6,-0.51666 -0.233342,-0.92499 -0.7,-1.225 -0.466675,-0.29999 -1.200007,-0.44999 -2.2,-0.45 -0.466672,10e-6 -1.008338,0.0584 -1.625,0.175 -0.600004,0.11668 -1.11667,0.27501 -1.55,0.475 l -0.45,-1.825"
         style="font-size:25px;fill:#00d4aa"
         id="path3064"
         inkscape:connector-curvature="0" />
      <path
         d="m 82.613966,921.15626 c 0.966659,0 1.716658,-0.16666 2.25,-0.5 0.533324,-0.35 0.79999,-0.90833 0.8,-1.675 -1e-5,-0.36666 -0.08334,-0.68333 -0.25,-0.95 -0.150009,-0.26666 -0.366676,-0.48333 -0.65,-0.65 -0.266675,-0.18333 -0.591675,-0.31666 -0.975,-0.4 -0.366674,-0.0833 -0.75834,-0.12499 -1.175,-0.125 -0.43334,10e-6 -0.883339,0.0167 -1.35,0.05 -0.450005,0.0167 -0.833338,0.0667 -1.15,0.15 l 0,3.975 c 0.199996,0.0333 0.549995,0.0667 1.05,0.1 0.516661,0.0167 0.999994,0.025 1.45,0.025 m -4.575,-10.15 2.075,0 0,4.425 c 0.266662,-0.05 0.666662,-0.1 1.2,-0.15 0.533327,-0.0667 1.04166,-0.1 1.525,-0.1 0.666659,1e-5 1.299992,0.075 1.9,0.225 0.599991,0.13334 1.12499,0.35001 1.575,0.65 0.449989,0.30001 0.799989,0.69167 1.05,1.175 0.266655,0.48334 0.399988,1.05834 0.4,1.725 -1.2e-5,1.4 -0.483345,2.4 -1.45,3 -0.950009,0.6 -2.225008,0.9 -3.825,0.9 -0.783339,0 -1.541672,-0.0417 -2.275,-0.125 -0.71667,-0.0667 -1.44167,-0.19166 -2.175,-0.375 l 0,-11.35"
         style="font-size:25px;fill:#00d4aa"
         id="path3066"
         inkscape:connector-curvature="0" />
      <path
         d="m 102.48897,916.83126 c -10e-6,-1.04999 0.16666,-1.95832 0.5,-2.725 0.33333,-0.76666 0.79166,-1.39999 1.375,-1.9 0.58333,-0.49999 1.25832,-0.86665 2.025,-1.1 0.78332,-0.24999 1.61666,-0.37499 2.5,-0.375 0.56665,10e-6 1.12499,0.0417 1.675,0.125 0.56665,0.0667 1.16665,0.20001 1.8,0.4 l -0.475,1.775 c -0.55001,-0.19999 -1.05835,-0.32499 -1.525,-0.375 -0.45001,-0.0666 -0.90835,-0.1 -1.375,-0.1 -0.60001,1e-5 -1.16668,0.0833 -1.7,0.25 -0.53334,0.15001 -1.00001,0.40001 -1.4,0.75 -0.38334,0.33334 -0.69167,0.77501 -0.925,1.325 -0.23334,0.53334 -0.35001,1.18334 -0.35,1.95 -10e-6,0.73334 0.10833,1.36667 0.325,1.9 0.21666,0.51667 0.51666,0.95001 0.9,1.3 0.39999,0.33334 0.87499,0.58334 1.425,0.75 0.54999,0.16667 1.15832,0.25 1.825,0.25 0.53332,0 1.04165,-0.025 1.525,-0.075 0.49999,-0.0667 1.04165,-0.2 1.625,-0.4 l 0.3,1.725 c -0.58335,0.21667 -1.17501,0.36667 -1.775,0.45 -0.60001,0.1 -1.25001,0.15 -1.95,0.15 -0.93334,0 -1.79168,-0.125 -2.575,-0.375 -0.76668,-0.26666 -1.43334,-0.65 -2,-1.15 -0.55001,-0.5 -0.98334,-1.125 -1.3,-1.875 -0.30001,-0.76666 -0.45001,-1.64999 -0.45,-2.65"
         style="font-size:25px;fill:#00d4aa"
         id="path3068"
         inkscape:connector-curvature="0" />
      <path
         d="m 120.13897,921.13126 c 0.51666,0 0.97499,-0.0167 1.375,-0.05 0.41665,-0.0333 0.75832,-0.075 1.025,-0.125 l 0,-3.45 c -0.26668,-0.0833 -0.59168,-0.14999 -0.975,-0.2 -0.36668,-0.05 -0.75834,-0.075 -1.175,-0.075 -0.38334,10e-6 -0.75834,0.0333 -1.125,0.1 -0.36668,0.05 -0.69168,0.15001 -0.975,0.3 -0.28334,0.15001 -0.51668,0.35001 -0.7,0.6 -0.18334,0.23334 -0.27501,0.53334 -0.275,0.9 -1e-5,0.75 0.24999,1.275 0.75,1.575 0.51666,0.28334 1.20832,0.425 2.075,0.425 m -0.2,-10.4 c 0.86666,10e-6 1.59165,0.10835 2.175,0.325 0.59999,0.21668 1.08332,0.51668 1.45,0.9 0.36665,0.38335 0.62499,0.85001 0.775,1.4 0.14998,0.55001 0.22498,1.15001 0.225,1.8 l 0,7.25 c -0.48335,0.0833 -1.12501,0.18334 -1.925,0.3 -0.78335,0.11667 -1.59168,0.175 -2.425,0.175 -0.63334,0 -1.25001,-0.0583 -1.85,-0.175 -0.60001,-0.1 -1.13334,-0.28333 -1.6,-0.55 -0.46667,-0.28333 -0.84167,-0.66666 -1.125,-1.15 -0.28334,-0.48333 -0.42501,-1.1 -0.425,-1.85 -1e-5,-0.66666 0.14166,-1.22499 0.425,-1.675 0.29999,-0.46666 0.67499,-0.84166 1.125,-1.125 0.46666,-0.28332 0.99166,-0.48332 1.575,-0.6 0.59999,-0.13332 1.19999,-0.19999 1.8,-0.2 0.81666,1e-5 1.61665,0.0917 2.4,0.275 l 0,-0.575 c -1e-5,-0.34999 -0.0417,-0.68332 -0.125,-1 -0.0667,-0.33332 -0.20835,-0.63332 -0.425,-0.9 -0.20001,-0.26665 -0.48335,-0.47499 -0.85,-0.625 -0.35001,-0.16665 -0.80834,-0.24999 -1.375,-0.25 -0.71668,10e-6 -1.34168,0.05 -1.875,0.15 -0.53334,0.10001 -0.94167,0.20001 -1.225,0.3 l -0.25,-1.7 c 0.28333,-0.13332 0.74999,-0.24999 1.4,-0.35 0.66666,-0.1 1.37499,-0.14999 2.125,-0.15"
         style="font-size:25px;fill:#00d4aa"
         id="path3070"
         inkscape:connector-curvature="0" />
      <path
         d="m 136.88897,920.85626 0.975,0 0,4.975 -1.95,0 0,-3.225 -7.875,0 0,-11.6 2.075,0 0,9.85 4.725,0 0,-9.85 2.05,0 0,9.85"
         style="font-size:25px;fill:#00d4aa"
         id="path3072"
         inkscape:connector-curvature="0" />
      <path
         d="m 143.26397,916.85626 c -0.26668,10e-6 -0.52501,0.0167 -0.775,0.05 -0.23334,0.0167 -0.45001,0.0667 -0.65,0.15 l 0,3.975 c 0.13333,0.0333 0.34166,0.0667 0.625,0.1 0.28332,0.0167 0.53332,0.025 0.75,0.025 0.54999,0 0.99166,-0.16666 1.325,-0.5 0.34999,-0.35 0.52499,-0.90833 0.525,-1.675 -1e-5,-0.74999 -0.19168,-1.29166 -0.575,-1.625 -0.38334,-0.33333 -0.79168,-0.49999 -1.225,-0.5 m -3.375,-5.85 1.95,0 0,4.425 c 0.18333,-0.05 0.42499,-0.1 0.725,-0.15 0.31666,-0.0667 0.64166,-0.1 0.975,-0.1 0.46666,1e-5 0.90832,0.075 1.325,0.225 0.43332,0.13334 0.80832,0.35001 1.125,0.65 0.33332,0.30001 0.59165,0.69167 0.775,1.175 0.19999,0.48334 0.29999,1.05834 0.3,1.725 -1e-5,1.4 -0.36668,2.4 -1.1,3 -0.71668,0.6 -1.65001,0.9 -2.8,0.9 -0.58334,0 -1.14167,-0.0417 -1.675,-0.125 -0.51667,-0.0667 -1.05001,-0.19166 -1.6,-0.375 l 0,-11.35 m 10.25,11.6 -1.95,0 0,-11.6 1.95,0 0,11.6"
         style="font-size:25px;fill:#00d4aa"
         id="path3074"
         inkscape:connector-curvature="0" />
      <path
         d="m 158.16397,918.10626 c -0.23334,10e-6 -0.45834,10e-6 -0.675,0 -0.20001,-0.0167 -0.39168,-0.0333 -0.575,-0.05 -0.48334,0.71667 -0.94168,1.48334 -1.375,2.3 -0.43334,0.8 -0.82501,1.55 -1.175,2.25 l -2.1,0 c 0.18333,-0.43333 0.39166,-0.875 0.625,-1.325 0.23333,-0.46666 0.47499,-0.90833 0.725,-1.325 0.24999,-0.43333 0.49999,-0.84166 0.75,-1.225 0.24999,-0.39999 0.49166,-0.74999 0.725,-1.05 -0.83334,-0.29999 -1.40001,-0.72499 -1.7,-1.275 -0.28334,-0.56666 -0.42501,-1.16666 -0.425,-1.8 -1e-5,-0.64999 0.11666,-1.21666 0.35,-1.7 0.24999,-0.48332 0.59166,-0.88332 1.025,-1.2 0.43333,-0.33332 0.94166,-0.58332 1.525,-0.75 0.59999,-0.16665 1.24999,-0.24999 1.95,-0.25 0.98332,10e-6 1.80832,0.0417 2.475,0.125 0.66665,0.0833 1.23332,0.19168 1.7,0.325 l 0,11.45 -2.075,0 0,-4.5 -1.75,0 m 1.75,-5.575 c -0.16668,-0.0333 -0.43335,-0.0583 -0.8,-0.075 -0.35001,-0.0333 -0.77501,-0.05 -1.275,-0.05 -0.85001,10e-6 -1.53334,0.17501 -2.05,0.525 -0.51668,0.35001 -0.77501,0.90001 -0.775,1.65 -1e-5,0.75001 0.26666,1.26668 0.8,1.55 0.53332,0.28334 1.22499,0.42501 2.075,0.425 l 2.025,0 0,-4.025"
         style="font-size:25px;fill:#00d4aa"
         id="path3076"
         inkscape:connector-curvature="0" />
      <path
         d="m 169.63897,912.73126 c -1e-5,0.50001 -0.0167,1.03334 -0.05,1.6 -0.0167,0.55001 -0.0583,1.10834 -0.125,1.675 -0.05,0.55001 -0.12501,1.10001 -0.225,1.65 -0.10001,0.53334 -0.23334,1.03334 -0.4,1.5 -0.33334,0.95 -0.84168,1.76667 -1.525,2.45 -0.68334,0.68334 -1.65834,1.09167 -2.925,1.225 l -0.3,-1.75 c 0.73333,-0.13333 1.30833,-0.4 1.725,-0.8 0.43333,-0.41666 0.77499,-0.91666 1.025,-1.5 0.21666,-0.49999 0.37499,-1.06666 0.475,-1.7 0.11666,-0.63332 0.19999,-1.29999 0.25,-2 0.05,-0.69999 0.075,-1.39999 0.075,-2.1 -1e-5,-0.69999 -1e-5,-1.35832 0,-1.975 l 6.85,0 0,11.6 -2.075,0 0,-9.875 -2.775,0"
         style="font-size:25px;fill:#00d4aa"
         id="path3078"
         inkscape:connector-curvature="0" />
      <path
         d="m 182.61397,921.15626 c 0.96665,0 1.71665,-0.16666 2.25,-0.5 0.53332,-0.35 0.79999,-0.90833 0.8,-1.675 -1e-5,-0.36666 -0.0833,-0.68333 -0.25,-0.95 -0.15001,-0.26666 -0.36668,-0.48333 -0.65,-0.65 -0.26668,-0.18333 -0.59168,-0.31666 -0.975,-0.4 -0.36668,-0.0833 -0.75834,-0.12499 -1.175,-0.125 -0.43334,10e-6 -0.88334,0.0167 -1.35,0.05 -0.45001,0.0167 -0.83334,0.0667 -1.15,0.15 l 0,3.975 c 0.19999,0.0333 0.54999,0.0667 1.05,0.1 0.51666,0.0167 0.99999,0.025 1.45,0.025 m -4.575,-10.15 2.075,0 0,4.425 c 0.26666,-0.05 0.66666,-0.1 1.2,-0.15 0.53332,-0.0667 1.04166,-0.1 1.525,-0.1 0.66666,1e-5 1.29999,0.075 1.9,0.225 0.59999,0.13334 1.12499,0.35001 1.575,0.65 0.44999,0.30001 0.79998,0.69167 1.05,1.175 0.26665,0.48334 0.39998,1.05834 0.4,1.725 -2e-5,1.4 -0.48335,2.4 -1.45,3 -0.95001,0.6 -2.22501,0.9 -3.825,0.9 -0.78334,0 -1.54168,-0.0417 -2.275,-0.125 -0.71667,-0.0667 -1.44167,-0.19166 -2.175,-0.375 l 0,-11.35"
         style="font-size:25px;fill:#00d4aa"
         id="path3080"
         inkscape:connector-curvature="0" />
      <path
         d="m 199.48897,922.60626 -2.075,0 0,-5.125 -4.8,0 0,5.125 -2.075,0 0,-11.6 2.075,0 0,4.725 4.8,0 0,-4.725 2.075,0 0,11.6"
         style="font-size:25px;fill:#00d4aa"
         id="path3082"
         inkscape:connector-curvature="0" />
      <path
         d="m 205.76397,916.85626 c -0.26668,10e-6 -0.52501,0.0167 -0.775,0.05 -0.23334,0.0167 -0.45001,0.0667 -0.65,0.15 l 0,3.975 c 0.13333,0.0333 0.34166,0.0667 0.625,0.1 0.28332,0.0167 0.53332,0.025 0.75,0.025 0.54999,0 0.99166,-0.16666 1.325,-0.5 0.34999,-0.35 0.52499,-0.90833 0.525,-1.675 -1e-5,-0.74999 -0.19168,-1.29166 -0.575,-1.625 -0.38334,-0.33333 -0.79168,-0.49999 -1.225,-0.5 m -3.375,-5.85 1.95,0 0,4.425 c 0.18333,-0.05 0.42499,-0.1 0.725,-0.15 0.31666,-0.0667 0.64166,-0.1 0.975,-0.1 0.46666,1e-5 0.90832,0.075 1.325,0.225 0.43332,0.13334 0.80832,0.35001 1.125,0.65 0.33332,0.30001 0.59165,0.69167 0.775,1.175 0.19999,0.48334 0.29999,1.05834 0.3,1.725 -1e-5,1.4 -0.36668,2.4 -1.1,3 -0.71668,0.6 -1.65001,0.9 -2.8,0.9 -0.58334,0 -1.14167,-0.0417 -1.675,-0.125 -0.51667,-0.0667 -1.05001,-0.19166 -1.6,-0.375 l 0,-11.35 m 10.25,11.6 -1.95,0 0,-11.6 1.95,0 0,11.6"
         style="font-size:25px;fill:#00d4aa"
         id="path3084"
         inkscape:connector-curvature="0" />
      <path
         d="m 216.73897,914.05626 c -0.13334,1.51668 -0.20834,3.00001 -0.225,4.45 -1e-5,1.43334 -0.025,2.8 -0.075,4.1 l -2,0 c 0.0167,-0.91666 0.05,-1.86666 0.1,-2.85 0.0667,-0.98333 0.13333,-1.97499 0.2,-2.975 0.0833,-0.99999 0.16666,-1.99166 0.25,-2.975 0.1,-0.98332 0.19999,-1.91665 0.3,-2.8 l 1.925,0 c 0.31666,0.80001 0.69166,1.80001 1.125,3 0.43332,1.20001 0.98332,2.63334 1.65,4.3 0.68332,-1.66666 1.24165,-3.09999 1.675,-4.3 0.44999,-1.19999 0.84165,-2.19999 1.175,-3 l 1.9,0 c 0.1,0.88335 0.19165,1.81668 0.275,2.8 0.1,0.98334 0.18332,1.97501 0.25,2.975 0.0833,1.00001 0.14998,1.99167 0.2,2.975 0.05,0.98334 0.0917,1.93334 0.125,2.85 l -2,0 c -0.05,-1.3 -0.0917,-2.7 -0.125,-4.2 -0.0167,-1.49999 -0.0833,-2.94999 -0.2,-4.35 -0.21668,0.51668 -0.41668,1.00001 -0.6,1.45 -0.16668,0.43334 -0.33335,0.88334 -0.5,1.35 -0.15001,0.46667 -0.31668,0.96667 -0.5,1.5 -0.18335,0.51667 -0.40001,1.12501 -0.65,1.825 l -2.05,0 c -0.23334,-0.69999 -0.44168,-1.30833 -0.625,-1.825 -0.18334,-0.53333 -0.35834,-1.03333 -0.525,-1.5 -0.15001,-0.46666 -0.31667,-0.91666 -0.5,-1.35 -0.16667,-0.44999 -0.35834,-0.93332 -0.575,-1.45"
         style="font-size:25px;fill:#00d4aa"
         id="path3086"
         inkscape:connector-curvature="0" />
      <path
         d="m 233.58897,911.33126 c -1e-5,0.61668 -0.008,1.18335 -0.025,1.7 -0.0167,0.51668 -0.05,1.00834 -0.1,1.475 -0.0333,0.46668 -0.075,0.93334 -0.125,1.4 -0.05,0.45001 -0.10001,0.92501 -0.15,1.425 l -1.425,0 c -0.05,-0.49999 -0.10001,-0.97499 -0.15,-1.425 -0.05,-0.46666 -0.10001,-0.93332 -0.15,-1.4 -0.0333,-0.46666 -0.0583,-0.95832 -0.075,-1.475 -0.0167,-0.51665 -0.025,-1.08332 -0.025,-1.7 l 0,-4.2 2.225,0 0,4.2 m -1.125,11.575 c -0.45001,0 -0.84168,-0.15 -1.175,-0.45 -0.33334,-0.31666 -0.50001,-0.73333 -0.5,-1.25 -1e-5,-0.51666 0.16666,-0.925 0.5,-1.225 0.33332,-0.31666 0.72499,-0.47499 1.175,-0.475 0.46666,10e-6 0.85832,0.15834 1.175,0.475 0.33332,0.3 0.49999,0.70834 0.5,1.225 -1e-5,0.51667 -0.16668,0.93334 -0.5,1.25 -0.31668,0.3 -0.70834,0.45 -1.175,0.45"
         style="font-size:25px;fill:#00d4aa"
         id="path3088"
         inkscape:connector-curvature="0" />
    </g>
  </g>
</svg>
