<?xml version="1.0" encoding="UTF-8" standalone="no"?>
<!-- Created with Inkscape (http://www.inkscape.org/) -->

<svg
   xmlns:dc="http://purl.org/dc/elements/1.1/"
   xmlns:cc="http://creativecommons.org/ns#"
   xmlns:rdf="http://www.w3.org/1999/02/22-rdf-syntax-ns#"
   xmlns:svg="http://www.w3.org/2000/svg"
   xmlns="http://www.w3.org/2000/svg"
   xmlns:sodipodi="http://sodipodi.sourceforge.net/DTD/sodipodi-0.dtd"
   xmlns:inkscape="http://www.inkscape.org/namespaces/inkscape"
   width="524.40942"
   height="372.04724"
   id="svg2"
   version="1.1"
   inkscape:version="0.48.4 r9939"
   sodipodi:docname="postcard_logo_v2_3_path.svg"
   inkscape:export-filename="/home/svet/Dropbox/falanster/design/postcards/for_falanster/postcard_logo_v2_3_path.png"
   inkscape:export-xdpi="300"
   inkscape:export-ydpi="300">
  <defs
     id="defs4" />
  <sodipodi:namedview
     id="base"
     pagecolor="#ffffff"
     bordercolor="#666666"
     borderopacity="1.0"
     inkscape:pageopacity="0.0"
     inkscape:pageshadow="2"
     inkscape:zoom="0.98994949"
     inkscape:cx="217.06871"
     inkscape:cy="175.62966"
     inkscape:document-units="px"
     inkscape:current-layer="layer1"
     showgrid="false"
     inkscape:window-width="1301"
     inkscape:window-height="744"
     inkscape:window-x="65"
     inkscape:window-y="24"
     inkscape:window-maximized="1"
     showguides="true"
     inkscape:guide-bbox="true">
    <sodipodi:guide
       orientation="0,1"
       position="279.81226,16.162441"
       id="guide2999" />
    <sodipodi:guide
       orientation="1,0"
       position="26.263966,437.39605"
       id="guide3001" />
    <sodipodi:guide
       orientation="1,0"
       position="495.9849,304.05592"
       id="guide3003" />
    <sodipodi:guide
       orientation="0,1"
       position="252.85714,130"
       id="guide2994" />
  </sodipodi:namedview>
  <metadata
     id="metadata7">
    <rdf:RDF>
      <cc:Work
         rdf:about="">
        <dc:format>image/svg+xml</dc:format>
        <dc:type
           rdf:resource="http://purl.org/dc/dcmitype/StillImage" />
        <dc:title></dc:title>
      </cc:Work>
    </rdf:RDF>
  </metadata>
  <g
     inkscape:label="Layer 1"
     inkscape:groupmode="layer"
     id="layer1"
     transform="translate(0,-680.31491)">
    <path
       style="fill:#1a1a1a;fill-opacity:1;fill-rule:nonzero;stroke:none"
       d="m 0,680.31488 524.40942,0 0,372.04722 -524.40942,0 z"
       id="rect2985" />
    <g
       style="font-size:20.41827583px;font-style:normal;font-variant:normal;font-weight:normal;font-stretch:normal;line-height:125%;letter-spacing:0px;word-spacing:0px;fill:#4d4d4d;fill-opacity:1;stroke:none;font-family:Ubuntu;-inkscape-font-specification:Ubuntu"
       id="text2995">
      <path
         d="m 392.6943,906.51754 c 0.55809,2e-5 1.03452,0.0408 1.42928,0.12251 0.40835,0.0817 0.69421,0.15655 0.85756,0.2246 l -0.34711,1.63346 c -0.16335,-0.0817 -0.39476,-0.15652 -0.69422,-0.2246 -0.29947,-0.0817 -0.667,-0.12249 -1.10259,-0.12251 -0.88479,2e-5 -1.50415,0.24503 -1.85806,0.73506 -0.35392,0.47644 -0.53088,1.12302 -0.53087,1.93974 l 0,0.91882 4.08365,0 0,1.59262 -4.08365,0 0,9.02488 -1.8989,0 0,-11.57716 c -1e-5,-1.36121 0.33349,-2.40934 1.00049,-3.14442 0.667,-0.74865 1.71513,-1.12298 3.14442,-1.123"
         style="fill:#4d4d4d;font-family:Ubuntu;-inkscape-font-specification:Ubuntu"
         id="path3014" />
      <path
         d="m 400.03913,920.9941 c 0.4492,0 0.84395,-0.007 1.18426,-0.0204 0.35391,-0.0272 0.64657,-0.0681 0.87799,-0.12251 l 0,-3.16483 c -0.13613,-0.0681 -0.36073,-0.12251 -0.6738,-0.16335 -0.29948,-0.0544 -0.66701,-0.0817 -1.10259,-0.0817 -0.28586,0 -0.59214,0.0204 -0.91882,0.0612 -0.31309,0.0408 -0.60575,0.12932 -0.87799,0.26544 -0.25863,0.12251 -0.47643,0.29947 -0.65338,0.53087 -0.17697,0.2178 -0.26544,0.51047 -0.26544,0.87799 0,0.68061 0.21779,1.15704 0.65338,1.42928 0.43559,0.25863 1.02772,0.38795 1.77639,0.38795 m -0.16334,-9.51492 c 0.76227,10e-6 1.40205,0.1021 1.91931,0.30627 0.53087,0.19059 0.95285,0.46964 1.26594,0.83715 0.32668,0.35393 0.55809,0.78271 0.69422,1.28636 0.13611,0.49004 0.20417,1.03453 0.20418,1.63346 l 0,6.63594 c -0.16335,0.0272 -0.39476,0.0681 -0.69422,0.12251 -0.28586,0.0408 -0.61256,0.0817 -0.98008,0.12251 -0.36753,0.0408 -0.76909,0.0749 -1.20468,0.10209 -0.42198,0.0408 -0.84396,0.0612 -1.26593,0.0612 -0.59894,0 -1.15023,-0.0612 -1.65388,-0.18376 -0.50365,-0.12251 -0.93924,-0.31308 -1.30677,-0.57171 -0.36753,-0.27225 -0.65338,-0.62616 -0.85757,-1.06175 -0.20418,-0.43559 -0.30627,-0.95966 -0.30627,-1.57221 0,-0.58532 0.1157,-1.08897 0.34711,-1.51095 0.24502,-0.42198 0.57171,-0.76228 0.98008,-1.02092 0.40836,-0.25862 0.88479,-0.44919 1.42928,-0.57171 0.54448,-0.1225 1.11619,-0.18376 1.71513,-0.18376 0.19057,0 0.38794,0.0136 0.59213,0.0408 0.20418,0.0136 0.39475,0.0408 0.57171,0.0817 0.19057,0.0272 0.35391,0.0544 0.49004,0.0817 0.13612,0.0272 0.2314,0.0476 0.28586,0.0612 l 0,-0.53087 c -1e-5,-0.31307 -0.034,-0.61935 -0.10209,-0.91882 -0.0681,-0.31308 -0.19058,-0.58532 -0.36753,-0.81673 -0.17697,-0.24502 -0.42199,-0.43559 -0.73506,-0.57172 -0.29947,-0.14972 -0.69423,-0.22459 -1.18426,-0.2246 -0.62616,10e-6 -1.17746,0.0476 -1.65388,0.14293 -0.46282,0.0817 -0.80993,0.17016 -1.04133,0.26544 l -0.2246,-1.57221 c 0.24501,-0.10889 0.65338,-0.21098 1.22509,-0.30627 0.57171,-0.10889 1.19107,-0.16334 1.85807,-0.16335"
         style="fill:#4d4d4d;font-family:Ubuntu;-inkscape-font-specification:Ubuntu"
         id="path3016" />
      <path
         d="m 410.27858,922.5663 c -1.17065,-0.0272 -2.001,-0.27905 -2.49103,-0.75547 -0.49004,-0.47643 -0.73506,-1.21829 -0.73506,-2.22559 l 0,-12.74101 1.8989,-0.32669 0,12.76142 c 0,0.31308 0.0272,0.57172 0.0817,0.7759 0.0545,0.20418 0.14293,0.36753 0.26544,0.49004 0.12251,0.12251 0.28585,0.21779 0.49004,0.28585 0.20418,0.0545 0.456,0.10209 0.75548,0.14293 l -0.26544,1.59262"
         style="fill:#4d4d4d;font-family:Ubuntu;-inkscape-font-specification:Ubuntu"
         id="path3018" />
      <path
         d="m 416.27007,920.9941 c 0.44919,0 0.84395,-0.007 1.18426,-0.0204 0.35391,-0.0272 0.64657,-0.0681 0.87798,-0.12251 l 0,-3.16483 c -0.13613,-0.0681 -0.36073,-0.12251 -0.6738,-0.16335 -0.29948,-0.0544 -0.667,-0.0817 -1.10259,-0.0817 -0.28586,0 -0.59213,0.0204 -0.91882,0.0612 -0.31308,0.0408 -0.60575,0.12932 -0.87799,0.26544 -0.25863,0.12251 -0.47643,0.29947 -0.65338,0.53087 -0.17696,0.2178 -0.26544,0.51047 -0.26544,0.87799 0,0.68061 0.21779,1.15704 0.65339,1.42928 0.43558,0.25863 1.02771,0.38795 1.77639,0.38795 m -0.16335,-9.51492 c 0.76228,10e-6 1.40205,0.1021 1.91932,0.30627 0.53087,0.19059 0.95284,0.46964 1.26593,0.83715 0.32669,0.35393 0.55809,0.78271 0.69422,1.28636 0.13612,0.49004 0.20418,1.03453 0.20419,1.63346 l 0,6.63594 c -0.16336,0.0272 -0.39477,0.0681 -0.69423,0.12251 -0.28586,0.0408 -0.61255,0.0817 -0.98007,0.12251 -0.36754,0.0408 -0.7691,0.0749 -1.20468,0.10209 -0.42199,0.0408 -0.84396,0.0612 -1.26593,0.0612 -0.59895,0 -1.15024,-0.0612 -1.65388,-0.18376 -0.50366,-0.12251 -0.93925,-0.31308 -1.30677,-0.57171 -0.36754,-0.27225 -0.65339,-0.62616 -0.85757,-1.06175 -0.20419,-0.43559 -0.30628,-0.95966 -0.30628,-1.57221 0,-0.58532 0.11571,-1.08897 0.34711,-1.51095 0.24502,-0.42198 0.57171,-0.76228 0.98008,-1.02092 0.40836,-0.25862 0.88479,-0.44919 1.42928,-0.57171 0.54448,-0.1225 1.1162,-0.18376 1.71514,-0.18376 0.19056,0 0.38794,0.0136 0.59213,0.0408 0.20417,0.0136 0.39474,0.0408 0.57171,0.0817 0.19056,0.0272 0.35391,0.0544 0.49004,0.0817 0.13611,0.0272 0.2314,0.0476 0.28585,0.0612 l 0,-0.53087 c 0,-0.31307 -0.034,-0.61935 -0.10209,-0.91882 -0.0681,-0.31308 -0.19058,-0.58532 -0.36753,-0.81673 -0.17696,-0.24502 -0.42198,-0.43559 -0.73506,-0.57172 -0.29947,-0.14972 -0.69422,-0.22459 -1.18426,-0.2246 -0.62616,10e-6 -1.17745,0.0476 -1.65388,0.14293 -0.46281,0.0817 -0.80992,0.17016 -1.04133,0.26544 l -0.2246,-1.57221 c 0.24502,-0.10889 0.65338,-0.21098 1.2251,-0.30627 0.57171,-0.10889 1.19106,-0.16334 1.85806,-0.16335"
         style="fill:#4d4d4d;font-family:Ubuntu;-inkscape-font-specification:Ubuntu"
         id="path3020" />
      <path
         d="m 423.32426,912.05089 c 0.43559,-0.10888 1.01411,-0.22459 1.73556,-0.34711 0.72144,-0.1225 1.55178,-0.18375 2.49102,-0.18376 0.84395,10e-6 1.54498,0.12252 2.10309,0.36753 0.55809,0.23141 1.00048,0.56491 1.32719,1.00049 0.34029,0.42199 0.5785,0.93244 0.71463,1.53137 0.13612,0.59895 0.20418,1.25914 0.20419,1.98058 l 0,5.96213 -1.8989,0 0,-5.55377 c -10e-6,-0.65338 -0.0476,-1.21148 -0.14293,-1.6743 -0.0817,-0.4628 -0.22461,-0.83714 -0.42878,-1.123 -0.20419,-0.28585 -0.47644,-0.49003 -0.81673,-0.61255 -0.34032,-0.13611 -0.76229,-0.20418 -1.26594,-0.20418 -0.20419,0 -0.41517,0.007 -0.63296,0.0204 -0.2178,0.0136 -0.42879,0.034 -0.63297,0.0613 -0.19058,0.0136 -0.36753,0.034 -0.53088,0.0612 -0.14973,0.0272 -0.25863,0.0477 -0.32669,0.0613 l 0,8.96362 -1.8989,0 0,-10.31123"
         style="fill:#4d4d4d;font-family:Ubuntu;-inkscape-font-specification:Ubuntu"
         id="path3022" />
      <path
         d="m 437.51943,920.9941 c 0.77589,0 1.3476,-0.10209 1.71513,-0.30628 0.38114,-0.20418 0.57171,-0.53087 0.57172,-0.98007 -1e-5,-0.46282 -0.18377,-0.83034 -0.5513,-1.10259 -0.36753,-0.27224 -0.97327,-0.57851 -1.81722,-0.91882 -0.40837,-0.16334 -0.80313,-0.32669 -1.18426,-0.49004 -0.36754,-0.17696 -0.68742,-0.38114 -0.95966,-0.61255 -0.27225,-0.2314 -0.49004,-0.51045 -0.65339,-0.83715 -0.16335,-0.32669 -0.24502,-0.72824 -0.24502,-1.20468 0,-0.93923 0.34711,-1.68109 1.04133,-2.22559 0.69422,-0.55809 1.64027,-0.83714 2.83815,-0.83715 0.29946,10e-6 0.59893,0.0204 0.8984,0.0613 0.29946,0.0272 0.57851,0.0681 0.83715,0.12251 0.25862,0.0408 0.48322,0.0885 0.6738,0.14292 0.20418,0.0545 0.36072,0.1021 0.46962,0.14293 l -0.34711,1.63346 c -0.20419,-0.10889 -0.52407,-0.21778 -0.95966,-0.32669 -0.43559,-0.1225 -0.95966,-0.18375 -1.5722,-0.18376 -0.53088,10e-6 -0.9937,0.1089 -1.38845,0.32669 -0.39475,0.20419 -0.59213,0.53088 -0.59213,0.98008 0,0.23141 0.0408,0.43559 0.12251,0.61254 0.0953,0.17697 0.23141,0.34032 0.40837,0.49004 0.19056,0.13613 0.42197,0.26545 0.69422,0.38795 0.27224,0.12252 0.59893,0.25183 0.98008,0.38795 0.50364,0.19057 0.95284,0.38114 1.3476,0.57171 0.39475,0.17696 0.72825,0.38795 1.0005,0.63297 0.28585,0.24502 0.50364,0.54449 0.65338,0.8984 0.14973,0.34031 0.2246,0.76229 0.2246,1.26593 0,0.98008 -0.36753,1.72194 -1.10258,2.22559 -0.72146,0.50366 -1.75598,0.75548 -3.10358,0.75548 -0.93924,0 -1.6743,-0.0817 -2.20517,-0.24502 -0.53088,-0.14973 -0.8916,-0.26544 -1.08217,-0.34711 l 0.34711,-1.63346 c 0.21779,0.0817 0.5649,0.20418 1.04133,0.36753 0.47642,0.16335 1.10939,0.24502 1.8989,0.24502"
         style="fill:#4d4d4d;font-family:Ubuntu;-inkscape-font-specification:Ubuntu"
         id="path3024" />
      <path
         d="m 445.91772,911.74462 4.0224,0 0,1.59262 -4.0224,0 0,4.90039 c 0,0.53088 0.0408,0.97327 0.12251,1.32719 0.0817,0.3403 0.20418,0.61255 0.36753,0.81673 0.16334,0.19057 0.36753,0.32669 0.61255,0.40836 0.24501,0.0817 0.53087,0.12252 0.85757,0.12251 0.5717,10e-6 1.02771,-0.0612 1.36802,-0.18376 0.35391,-0.13612 0.59893,-0.23141 0.73506,-0.28586 l 0.36753,1.57221 c -0.19058,0.0953 -0.52408,0.21099 -1.0005,0.34711 -0.47643,0.14974 -1.02092,0.2246 -1.63346,0.2246 -0.72145,0 -1.32039,-0.0885 -1.79681,-0.26543 -0.46282,-0.19058 -0.83715,-0.46962 -1.123,-0.83715 -0.28586,-0.36753 -0.49004,-0.81673 -0.61255,-1.34761 -0.1089,-0.54449 -0.16335,-1.17064 -0.16335,-1.87848 l 0,-9.47408 1.8989,-0.32669 0,3.28734"
         style="fill:#4d4d4d;font-family:Ubuntu;-inkscape-font-specification:Ubuntu"
         id="path3026" />
      <path
         d="m 451.56497,917.07379 c 0,-0.93924 0.13612,-1.75597 0.40837,-2.45019 0.27224,-0.70783 0.63296,-1.29315 1.08217,-1.75598 0.44919,-0.4628 0.96646,-0.80991 1.55178,-1.04133 0.58532,-0.2314 1.18426,-0.3471 1.79681,-0.34711 1.42928,10e-6 2.52505,0.44921 3.28735,1.34761 0.76227,0.8848 1.14341,2.23921 1.14342,4.06323 -1e-5,0.0817 -1e-5,0.19058 0,0.3267 -1e-5,0.12251 -0.007,0.23821 -0.0204,0.34711 l -7.26891,0 c 0.0817,1.10259 0.40156,1.93974 0.95966,2.51144 0.5581,0.57172 1.42928,0.85757 2.61354,0.85757 0.66699,0 1.22509,-0.0544 1.6743,-0.16334 0.46281,-0.12251 0.80992,-0.23822 1.04133,-0.34711 l 0.26544,1.59262 c -0.23142,0.12251 -0.63978,0.25183 -1.2251,0.38795 -0.57172,0.13612 -1.2251,0.20418 -1.96015,0.20418 -0.92563,0 -1.72875,-0.13612 -2.40936,-0.40836 -0.667,-0.28586 -1.21829,-0.67381 -1.65388,-1.16385 -0.43559,-0.49003 -0.76228,-1.06855 -0.98007,-1.73555 -0.20419,-0.68061 -0.30628,-1.42247 -0.30628,-2.22559 m 7.28933,-1.04133 c 0.0136,-0.85756 -0.20419,-1.55859 -0.65339,-2.10309 -0.4356,-0.55809 -1.04134,-0.83714 -1.81723,-0.83715 -0.43559,10e-6 -0.82354,0.0885 -1.16384,0.26544 -0.32669,0.16336 -0.60574,0.38115 -0.83715,0.65339 -0.23141,0.27225 -0.41517,0.58533 -0.55129,0.93924 -0.12251,0.35392 -0.20419,0.71464 -0.24502,1.08217 l 5.26792,0"
         style="fill:#4d4d4d;font-family:Ubuntu;-inkscape-font-specification:Ubuntu"
         id="path3028" />
      <path
         d="m 467.48293,911.52002 c 0.16334,10e-6 0.34711,0.0136 0.5513,0.0408 0.21778,0.0136 0.42877,0.0409 0.63296,0.0817 0.20418,0.0272 0.38794,0.0613 0.5513,0.10209 0.17695,0.0272 0.30626,0.0545 0.38794,0.0817 l -0.32669,1.65388 c -0.14974,-0.0544 -0.40157,-0.11569 -0.75548,-0.18376 -0.34031,-0.0817 -0.7827,-0.1225 -1.32718,-0.12251 -0.35393,10e-6 -0.70784,0.0408 -1.06175,0.12251 -0.34031,0.0681 -0.56491,0.11571 -0.67381,0.14293 l 0,8.92278 -1.8989,0 0,-10.1683 c 0.4492,-0.16334 1.0073,-0.31307 1.6743,-0.4492 0.66699,-0.14973 1.41566,-0.22459 2.24601,-0.2246"
         style="fill:#4d4d4d;font-family:Ubuntu;-inkscape-font-specification:Ubuntu"
         id="path3030" />
      <path
         d="m 472.58814,921.25953 c -1e-5,0.36753 -0.12252,0.68742 -0.36753,0.95966 -0.24503,0.27225 -0.57852,0.40837 -1.0005,0.40837 -0.42198,0 -0.75548,-0.13612 -1.00049,-0.40837 -0.24502,-0.27224 -0.36753,-0.59213 -0.36753,-0.95966 0,-0.36752 0.12251,-0.68741 0.36753,-0.95965 0.24501,-0.27225 0.57851,-0.40837 1.00049,-0.40837 0.42198,0 0.75547,0.13612 1.0005,0.40837 0.24501,0.27224 0.36752,0.59213 0.36753,0.95965"
         style="fill:#4d4d4d;font-family:Ubuntu;-inkscape-font-specification:Ubuntu"
         id="path3032" />
      <path
         d="m 477.26584,912.21424 c 0.2314,-0.14973 0.57851,-0.30627 1.04133,-0.46962 0.47642,-0.16334 1.02091,-0.24501 1.63346,-0.24502 0.76228,10e-6 1.43608,0.13613 2.02141,0.40836 0.59893,0.27226 1.10258,0.6534 1.51095,1.14343 0.40836,0.49005 0.71463,1.07537 0.91882,1.75597 0.21779,0.68062 0.32669,1.42928 0.3267,2.24601 -10e-6,0.85757 -0.12933,1.63347 -0.38795,2.32768 -0.24503,0.68061 -0.59895,1.25913 -1.06175,1.73556 -0.46282,0.47642 -1.02092,0.84395 -1.6743,1.10258 -0.65339,0.25864 -1.38845,0.38795 -2.20517,0.38795 -0.8848,0 -1.6675,-0.0612 -2.3481,-0.18376 -0.68062,-0.12251 -1.23872,-0.24502 -1.6743,-0.36753 l 0,-15.21162 1.8989,-0.32669 0,5.6967 m 0,8.494 c 0.19056,0.0544 0.456,0.1089 0.79631,0.16335 0.35391,0.0408 0.7895,0.0613 1.30677,0.0613 1.02091,0 1.83764,-0.33349 2.45019,-1.00049 0.61254,-0.68061 0.91882,-1.64027 0.91882,-2.87898 0,-0.54448 -0.0545,-1.05494 -0.16334,-1.53137 -0.10891,-0.47642 -0.28587,-0.88479 -0.53088,-1.2251 -0.24502,-0.35391 -0.56491,-0.62615 -0.95966,-0.81673 -0.38114,-0.20417 -0.84396,-0.30626 -1.38844,-0.30627 -0.51727,10e-6 -0.99369,0.0885 -1.42928,0.26544 -0.43559,0.17696 -0.76909,0.36073 -1.00049,0.55129 l 0,6.71761"
         style="fill:#4d4d4d;font-family:Ubuntu;-inkscape-font-specification:Ubuntu"
         id="path3034" />
      <path
         d="m 485.88586,924.34269 c 0.14973,0.0681 0.3403,0.12932 0.57171,0.18377 0.24502,0.0681 0.48323,0.10209 0.71464,0.10209 0.74867,0 1.33399,-0.17015 1.75597,-0.51046 0.42197,-0.32669 0.80311,-0.86437 1.14342,-1.61304 -0.85757,-1.63346 -1.66069,-3.36221 -2.40935,-5.18624 -0.73506,-1.83764 -1.34761,-3.6957 -1.83765,-5.57419 l 2.04183,0 c 0.14973,0.61256 0.32669,1.27275 0.53087,1.98057 0.2178,0.70784 0.45601,1.43609 0.71464,2.18476 0.25863,0.74867 0.53768,1.49734 0.83715,2.24601 0.29947,0.74867 0.61255,1.47012 0.93924,2.16433 0.51726,-1.42927 0.96646,-2.84494 1.34761,-4.247 0.38113,-1.40204 0.74186,-2.84493 1.08217,-4.32867 l 1.96015,0 c -0.49004,2.001 -1.03453,3.92712 -1.63346,5.77837 -0.59894,1.83765 -1.24552,3.55959 -1.93973,5.16582 -0.27225,0.61255 -0.55811,1.13662 -0.85757,1.57221 -0.28586,0.4492 -0.60575,0.81673 -0.95966,1.10259 -0.35392,0.28585 -0.75548,0.49684 -1.20468,0.63296 -0.43559,0.13612 -0.93244,0.20418 -1.49053,0.20419 -0.14974,-10e-6 -0.30628,-0.0136 -0.46962,-0.0408 -0.16335,-0.0136 -0.3267,-0.0408 -0.49004,-0.0817 -0.14974,-0.0272 -0.29266,-0.0613 -0.42879,-0.10209 -0.12251,-0.0408 -0.21099,-0.0749 -0.26543,-0.10209 l 0.34711,-1.53138"
         style="fill:#4d4d4d;font-family:Ubuntu;-inkscape-font-specification:Ubuntu"
         id="path3036" />
    </g>
    <g
       style="font-size:100.26876068px;font-style:normal;font-variant:normal;font-weight:600;font-stretch:normal;line-height:125%;letter-spacing:0px;word-spacing:0px;fill:#d40000;fill-opacity:1;stroke:none;font-family:a_AlternaBrk;-inkscape-font-specification:a_AlternaBrk Semi-Bold"
       id="text2988">
      <path
         d="m 73.691089,847.16152 -1.102956,0.90242 0,22.56047 6.116394,0 6.417201,-12.73413 -9.525532,-10.52822 -1.905107,-0.20054 m -14.438701,-22.25966 -2.005375,-0.10027 16.644614,1.50403 0,8.22204 4.913169,-1.50403 16.945421,6.61774 3.409138,19.15133 -5.414513,20.75563 -14.037627,4.11102 -8.322307,0.50134 2.506719,10.72876 -17.446764,0 0,-10.72876 -6.417201,-0.40107 -13.436014,-6.61774 -6.617738,-18.54972 5.514782,-17.44676 16.243539,-7.52016 4.8129,0 2.707257,-8.72338 m 0,22.4602 0,0.30081 -6.718007,-0.80215 -8.92392,13.03493 8.422576,12.5336 6.718007,-2.70726 -0.902419,-9.52553 1.403763,-12.8344"
         style=""
         id="path3039" />
      <path
         d="m 120.90122,870.62441 -0.10026,-1.00269 10.92929,0 1.20323,-18.14864 -6.61774,-16.84515 -3.60968,17.44676 -1.80484,18.54972 m 0.20054,24.76639 0.20054,-1.50404 -14.33843,0.90242 -1.80484,-14.03762 3.00806,-17.44677 1.50403,-16.64461 4.71264,-11.12983 5.51478,-11.73145 14.83977,0 6.4172,12.93467 3.30887,10.02688 1.50404,17.74757 1.10295,16.64461 0,13.13521 -12.73413,2.30618 0,-13.73682 -11.83171,-2.40645 -1.40377,14.94005"
         style=""
         id="path3041" />
      <path
         d="m 183.87236,895.89214 0,-0.70188 0,-12.8344 1.10295,-10.62849 -1.80484,-11.93198 2.10565,-10.62849 -1.10296,-12.8344 -6.61774,10.52822 -4.61236,13.03493 0,36.79864 -16.14327,-2.60699 -1.10296,-8.0215 0,-24.16477 5.21398,-17.24623 8.42258,-9.72607 9.9266,-8.92392 21.25698,-2.40645 -1.40376,13.13521 0,11.2301 -1.40377,12.03225 2.60699,11.02957 -2.00537,11.43064 1.00269,12.63386 -15.44139,0.80215"
         style=""
         id="path3043" />
      <path
         d="m 223.61795,870.62441 -0.10027,-1.00269 10.9293,0 1.20322,-18.14864 -6.61773,-16.84515 -3.60968,17.44676 -1.80484,18.54972 m 0.20054,24.76639 0.20054,-1.50404 -14.33843,0.90242 -1.80484,-14.03762 3.00806,-17.44677 1.50403,-16.64461 4.71263,-11.12983 5.51479,-11.73145 14.83977,0 6.4172,12.93467 3.30887,10.02688 1.50403,17.74757 1.10296,16.64461 0,13.13521 -12.73413,2.30618 0,-13.73682 -11.83172,-2.40645 -1.40376,14.94005"
         style=""
         id="path3045" />
      <path
         d="m 260.32101,895.89214 0.30081,-1.90511 0.60161,-9.6258 -1.20322,-13.53628 -0.80215,-11.53091 1.80484,-11.53091 -0.70189,-11.2301 0,-13.03494 16.14327,0.90242 -1.80483,12.5336 2.10564,13.63655 10.62849,-1.30349 0,-25.46827 15.7422,0 0,14.23816 -1.00269,9.12446 -1.10296,14.23817 0,21.1567 2.50672,14.03763 -15.34112,0 0,-13.33574 -0.90242,-9.325 0,-11.2301 -13.13521,0 2.60699,10.32768 -2.00537,10.42795 1.00268,11.63118 -15.44139,0.80215"
         style=""
         id="path3047" />
      <path
         d="m 355.20034,853.27792 0,-0.70188 -15.04031,-1.3035 0.70188,-7.82096 -7.7207,-6.91855 -3.91048,7.01882 -1.10295,9.82634 0,22.25966 6.718,6.51747 6.1164,-4.61236 -1.20323,-14.63924 14.33844,2.50672 0,6.718 -4.21129,17.94811 -14.63924,7.41989 -16.64462,-5.31424 -4.41182,-20.95618 -1.40376,-11.02956 0,-12.93467 3.40913,-18.14864 19.05107,-5.81559 14.53897,4.8129 5.81559,19.35187 -0.40108,5.81559"
         style=""
         id="path3049" />
      <path
         d="m 368.78595,838.33787 -0.10027,-1.80484 -10.12714,1.50403 -0.80215,-14.23816 13.23547,0 12.23279,2.50672 10.9293,-2.60699 -1.10296,15.34112 -10.42795,-1.70457 0,10.9293 2.30618,13.83709 0,20.35456 -1.20322,12.93467 -15.44139,0 -1.10296,-11.73145 2.60699,-12.23279 -2.00538,-11.73144 1.00269,-10.62849 0,-10.72876"
         style=""
         id="path3051" />
      <path
         d="m 401.71093,869.12038 0.20054,1.40376 14.94004,-0.80215 -1.00268,5.71532 6.81827,7.11908 4.21129,-6.31693 0,-11.2301 -12.03225,-2.10564 0,-10.9293 14.73951,-1.30349 -2.70726,-7.11908 -6.11639,-5.41452 -5.01344,5.01344 1.20322,2.10565 -16.24354,0 4.71264,-15.64193 16.44407,-5.91586 15.24085,4.71263 7.62043,17.94811 -1.40376,13.93736 0,10.72876 -5.41452,19.85321 -15.84246,4.31156 -16.94542,-5.11371 -5.41451,-17.34649 2.00537,-3.60968"
         style=""
         id="path3053" />
      <path
         d="m 468.75313,863.70587 -0.20054,-0.50135 5.71532,0 5.81559,-12.8344 -6.4172,-13.03494 -5.91586,-0.3008 1.00269,13.33574 0,13.33575 m -13.53628,30.28116 -1.20323,-0.10027 0.70189,-10.82902 -1.80484,-12.03225 2.10564,-10.82903 -1.10296,-13.03494 0,-23.36262 20.35456,0 13.33575,4.91317 6.31693,5.51478 1.30349,17.3465 -4.71263,17.54703 -14.63924,6.1164 -6.11639,1.70456 0,19.45214 -14.53897,-2.40645"
         style=""
         id="path3055" />
    </g>
    <g
       style="font-size:25.53344536px;font-style:normal;font-variant:normal;font-weight:normal;font-stretch:normal;line-height:125%;letter-spacing:0px;word-spacing:0px;fill:#d4aa00;fill-opacity:1;stroke:none;font-family:Ubuntu Mono;-inkscape-font-specification:Ubuntu Mono"
       id="text2990">
      <path
         d="m 31.563966,906.78126 c 0.96666,2e-5 1.841659,0.17502 2.625,0.525 0.799991,0.33335 1.47499,0.84168 2.025,1.525 0.566656,0.68335 0.999989,1.53335 1.3,2.55 0.316655,1.00001 0.474988,2.15834 0.475,3.475 -1.2e-5,1.33334 -0.166679,2.50834 -0.5,3.525 -0.316678,1.00001 -0.766678,1.84167 -1.35,2.525 -0.566676,0.66667 -1.250009,1.175 -2.05,1.525 -0.800007,0.33334 -1.675007,0.5 -2.625,0.5 -0.550005,0 -1.050005,-0.0417 -1.5,-0.125 -0.433337,-0.0667 -0.825003,-0.15833 -1.175,-0.275 -0.333336,-0.11666 -0.616669,-0.225 -0.85,-0.325 -0.233335,-0.11666 -0.408335,-0.21666 -0.525,-0.3 l 0.525,-1.65 c 0.133331,0.1 0.316664,0.2 0.55,0.3 0.249997,0.1 0.524997,0.2 0.825,0.3 0.299996,0.0833 0.616663,0.15834 0.95,0.225 0.333329,0.05 0.658328,0.075 0.975,0.075 1.41666,0 2.524992,-0.475 3.325,-1.425 0.816657,-0.96666 1.283323,-2.34999 1.4,-4.15 l -5.75,0 0,-1.75 5.725,0 c -0.06668,-0.78332 -0.208343,-1.49999 -0.425,-2.15 -0.216676,-0.64999 -0.516676,-1.19999 -0.9,-1.65 -0.366675,-0.46665 -0.825008,-0.82498 -1.375,-1.075 -0.53334,-0.26665 -1.15834,-0.39998 -1.875,-0.4 -0.816671,2e-5 -1.516671,0.10002 -2.1,0.3 -0.583336,0.20002 -1.016669,0.37502 -1.3,0.525 l -0.525,-1.6 c 0.299998,-0.18332 0.799998,-0.39165 1.5,-0.625 0.716663,-0.24998 1.591662,-0.37498 2.625,-0.375"
         style="font-size:25px;fill:#d4aa00"
         id="path3058" />
      <path
         d="m 44.713966,916.23126 c 0.449993,0.33334 0.958326,0.75834 1.525,1.275 0.566658,0.50001 1.124991,1.04167 1.675,1.625 0.566657,0.58334 1.099989,1.18334 1.6,1.8 0.499988,0.6 0.899988,1.15834 1.2,1.675 l -2.45,0 c -0.316676,-0.51666 -0.708343,-1.04166 -1.175,-1.575 -0.466675,-0.55 -0.966674,-1.075 -1.5,-1.575 -0.516673,-0.49999 -1.041673,-0.95833 -1.575,-1.375 -0.516672,-0.41666 -0.983338,-0.76666 -1.4,-1.05 l 0,5.575 -2.075,0 0,-11.6 2.075,0 0,4.85 c 0.916662,-0.79999 1.833327,-1.59166 2.75,-2.375 0.916659,-0.79999 1.741658,-1.62499 2.475,-2.475 l 2.425,0 c -0.716678,0.85001 -1.583344,1.72501 -2.6,2.625 -1.000008,0.90001 -1.983341,1.76668 -2.95,2.6"
         style="font-size:25px;fill:#d4aa00"
         id="path3060" />
      <path
         d="m 52.488966,916.83126 c -2e-6,-1.04999 0.166665,-1.95832 0.5,-2.725 0.333331,-0.76666 0.791664,-1.39999 1.375,-1.9 0.583329,-0.49999 1.258329,-0.86665 2.025,-1.1 0.783327,-0.24999 1.61666,-0.37499 2.5,-0.375 0.566658,10e-6 1.124991,0.0417 1.675,0.125 0.566656,0.0667 1.166656,0.20001 1.8,0.4 l -0.475,1.775 c -0.55001,-0.19999 -1.058343,-0.32499 -1.525,-0.375 -0.450009,-0.0666 -0.908342,-0.1 -1.375,-0.1 -0.600008,1e-5 -1.166674,0.0833 -1.7,0.25 -0.533339,0.15001 -1.000005,0.40001 -1.4,0.75 -0.383338,0.33334 -0.691671,0.77501 -0.925,1.325 -0.233337,0.53334 -0.350004,1.18334 -0.35,1.95 -4e-6,0.73334 0.108329,1.36667 0.325,1.9 0.216662,0.51667 0.516662,0.95001 0.9,1.3 0.399995,0.33334 0.874994,0.58334 1.425,0.75 0.549993,0.16667 1.158326,0.25 1.825,0.25 0.533325,0 1.041657,-0.025 1.525,-0.075 0.49999,-0.0667 1.041656,-0.2 1.625,-0.4 l 0.3,1.725 c -0.583344,0.21667 -1.17501,0.36667 -1.775,0.45 -0.600009,0.1 -1.250009,0.15 -1.95,0.15 -0.93334,0 -1.791673,-0.125 -2.575,-0.375 -0.766671,-0.26666 -1.433337,-0.65 -2,-1.15 -0.550003,-0.5 -0.983336,-1.125 -1.3,-1.875 -0.300002,-0.76666 -0.450002,-1.64999 -0.45,-2.65"
         style="font-size:25px;fill:#d4aa00"
         id="path3062" />
      <path
         d="m 74.488966,922.60626 -2.075,0 0,-9.875 -4.8,0 0,9.875 -2.075,0 0,-11.6 8.95,0 0,11.6"
         style="font-size:25px;fill:#d4aa00"
         id="path3064" />
      <path
         d="m 82.738966,910.73126 c 1.566658,10e-6 2.77499,0.49168 3.625,1.475 0.849989,0.96668 1.274988,2.44168 1.275,4.425 l 0,0.725 -8.3,0 c 0.08333,1.20001 0.474996,2.11667 1.175,2.75 0.716661,0.61667 1.71666,0.925 3,0.925 0.733325,0 1.358324,-0.0583 1.875,-0.175 0.516657,-0.11666 0.908323,-0.24166 1.175,-0.375 l 0.275,1.75 c -0.250011,0.13334 -0.70001,0.275 -1.35,0.425 -0.650009,0.15 -1.383342,0.225 -2.2,0.225 -1.000006,0 -1.883339,-0.15 -2.65,-0.45 -0.750004,-0.31666 -1.375003,-0.74166 -1.875,-1.275 -0.500002,-0.53333 -0.875002,-1.16666 -1.125,-1.9 -0.250002,-0.74999 -0.375001,-1.55833 -0.375,-2.425 -10e-7,-1.03332 0.158332,-1.93332 0.475,-2.7 0.316664,-0.76666 0.733331,-1.39999 1.25,-1.9 0.516663,-0.49999 1.099996,-0.87499 1.75,-1.125 0.649994,-0.24999 1.31666,-0.37499 2,-0.375 m 2.8,4.95 c -1e-5,-0.98332 -0.258343,-1.75832 -0.775,-2.325 -0.516675,-0.58332 -1.200008,-0.87499 -2.05,-0.875 -0.48334,10e-6 -0.925006,0.0917 -1.325,0.275 -0.383338,0.18335 -0.716671,0.42501 -1,0.725 -0.283338,0.30001 -0.508337,0.64168 -0.675,1.025 -0.16667,0.38334 -0.275004,0.77501 -0.325,1.175 l 6.15,0"
         style="font-size:25px;fill:#d4aa00"
         id="path3066" />
      <path
         d="m 98.138966,916.83126 c -1e-5,-1.34999 -0.316676,-2.39166 -0.95,-3.125 -0.633342,-0.74999 -1.458341,-1.12499 -2.475,-1.125 -0.566672,10e-6 -1.016672,0.025 -1.35,0.075 -0.316671,0.05 -0.566671,0.10835 -0.75,0.175 l 0,7.325 c 0.233329,0.21667 0.574995,0.41667 1.025,0.6 0.449994,0.18334 0.91666,0.275 1.4,0.275 0.549993,0 1.016659,-0.10833 1.4,-0.325 0.399992,-0.21666 0.724991,-0.50833 0.975,-0.875 0.249991,-0.38333 0.433324,-0.82499 0.55,-1.325 0.116657,-0.51666 0.17499,-1.07499 0.175,-1.675 m 2.125004,0 c -2e-5,0.88334 -0.11668,1.70001 -0.350004,2.45 -0.216678,0.73334 -0.541678,1.36667 -0.975,1.9 -0.416677,0.53334 -0.933343,0.95 -1.55,1.25 -0.616675,0.3 -1.316674,0.45 -2.1,0.45 -0.616673,0 -1.158339,-0.075 -1.625,-0.225 -0.466671,-0.15 -0.816671,-0.31666 -1.05,-0.5 l 0,4.575 -2.075,0 0,-15.375 c 0.449997,-0.13332 1.024997,-0.26665 1.725,-0.4 0.716662,-0.13332 1.533328,-0.19999 2.45,-0.2 0.833326,10e-6 1.591659,0.14168 2.275,0.425 0.683324,0.28335 1.266657,0.69168 1.75,1.225 0.483322,0.51668 0.858322,1.15001 1.125,1.9 0.266654,0.75001 0.399984,1.59168 0.400004,2.525"
         style="font-size:25px;fill:#d4aa00"
         id="path3068" />
      <path
         d="m 105.76397,916.85626 c -0.26668,10e-6 -0.52501,0.0167 -0.775,0.05 -0.23334,0.0167 -0.45001,0.0667 -0.65,0.15 l 0,3.975 c 0.13333,0.0333 0.34166,0.0667 0.625,0.1 0.28332,0.0167 0.53332,0.025 0.75,0.025 0.54999,0 0.99166,-0.16666 1.325,-0.5 0.34999,-0.35 0.52499,-0.90833 0.525,-1.675 -1e-5,-0.74999 -0.19168,-1.29166 -0.575,-1.625 -0.38334,-0.33333 -0.79168,-0.49999 -1.225,-0.5 m -3.375,-5.85 1.95,0 0,4.425 c 0.18333,-0.05 0.42499,-0.1 0.725,-0.15 0.31666,-0.0667 0.64166,-0.1 0.975,-0.1 0.46666,1e-5 0.90832,0.075 1.325,0.225 0.43332,0.13334 0.80832,0.35001 1.125,0.65 0.33332,0.30001 0.59165,0.69167 0.775,1.175 0.19999,0.48334 0.29999,1.05834 0.3,1.725 -1e-5,1.4 -0.36668,2.4 -1.1,3 -0.71668,0.6 -1.65001,0.9 -2.8,0.9 -0.58334,0 -1.14167,-0.0417 -1.675,-0.125 -0.51667,-0.0667 -1.05001,-0.19166 -1.6,-0.375 l 0,-11.35 m 10.25,11.6 -1.95,0 0,-11.6 1.95,0 0,11.6"
         style="font-size:25px;fill:#d4aa00"
         id="path3070" />
      <path
         d="m 116.73897,914.05626 c -0.13334,1.51668 -0.20834,3.00001 -0.225,4.45 -1e-5,1.43334 -0.025,2.8 -0.075,4.1 l -2,0 c 0.0167,-0.91666 0.05,-1.86666 0.1,-2.85 0.0667,-0.98333 0.13333,-1.97499 0.2,-2.975 0.0833,-0.99999 0.16666,-1.99166 0.25,-2.975 0.1,-0.98332 0.19999,-1.91665 0.3,-2.8 l 1.925,0 c 0.31666,0.80001 0.69166,1.80001 1.125,3 0.43332,1.20001 0.98332,2.63334 1.65,4.3 0.68332,-1.66666 1.24165,-3.09999 1.675,-4.3 0.44999,-1.19999 0.84165,-2.19999 1.175,-3 l 1.9,0 c 0.1,0.88335 0.19165,1.81668 0.275,2.8 0.1,0.98334 0.18332,1.97501 0.25,2.975 0.0833,1.00001 0.14998,1.99167 0.2,2.975 0.05,0.98334 0.0917,1.93334 0.125,2.85 l -2,0 c -0.05,-1.3 -0.0917,-2.7 -0.125,-4.2 -0.0167,-1.49999 -0.0834,-2.94999 -0.2,-4.35 -0.21668,0.51668 -0.41668,1.00001 -0.6,1.45 -0.16668,0.43334 -0.33335,0.88334 -0.5,1.35 -0.15001,0.46667 -0.31668,0.96667 -0.5,1.5 -0.18335,0.51667 -0.40001,1.12501 -0.65,1.825 l -2.05,0 c -0.23334,-0.69999 -0.44168,-1.30833 -0.625,-1.825 -0.18334,-0.53333 -0.35834,-1.03333 -0.525,-1.5 -0.15001,-0.46666 -0.31667,-0.91666 -0.5,-1.35 -0.16667,-0.44999 -0.35834,-0.93332 -0.575,-1.45"
         style="font-size:25px;fill:#d4aa00"
         id="path3072" />
      <path
         d="m 132.73897,910.73126 c 1.56665,10e-6 2.77499,0.49168 3.625,1.475 0.84998,0.96668 1.27498,2.44168 1.275,4.425 l 0,0.725 -8.3,0 c 0.0833,1.20001 0.47499,2.11667 1.175,2.75 0.71666,0.61667 1.71666,0.925 3,0.925 0.73332,0 1.35832,-0.0583 1.875,-0.175 0.51665,-0.11666 0.90832,-0.24166 1.175,-0.375 l 0.275,1.75 c -0.25001,0.13334 -0.70001,0.275 -1.35,0.425 -0.65001,0.15 -1.38335,0.225 -2.2,0.225 -1.00001,0 -1.88334,-0.15 -2.65,-0.45 -0.75001,-0.31666 -1.37501,-0.74166 -1.875,-1.275 -0.50001,-0.53333 -0.87501,-1.16666 -1.125,-1.9 -0.25001,-0.74999 -0.37501,-1.55833 -0.375,-2.425 -1e-5,-1.03332 0.15833,-1.93332 0.475,-2.7 0.31666,-0.76666 0.73333,-1.39999 1.25,-1.9 0.51666,-0.49999 1.09999,-0.87499 1.75,-1.125 0.64999,-0.24999 1.31666,-0.37499 2,-0.375 m 2.8,4.95 c -1e-5,-0.98332 -0.25835,-1.75832 -0.775,-2.325 -0.51668,-0.58332 -1.20001,-0.87499 -2.05,-0.875 -0.48334,10e-6 -0.92501,0.0917 -1.325,0.275 -0.38334,0.18335 -0.71668,0.42501 -1,0.725 -0.28334,0.30001 -0.50834,0.64168 -0.675,1.025 -0.16667,0.38334 -0.27501,0.77501 -0.325,1.175 l 6.15,0"
         style="font-size:25px;fill:#d4aa00"
         id="path3074" />
      <path
         d="m 149.48897,922.60626 -2.075,0 0,-5.125 -4.8,0 0,5.125 -2.075,0 0,-11.6 2.075,0 0,4.725 4.8,0 0,-4.725 2.075,0 0,11.6"
         style="font-size:25px;fill:#d4aa00"
         id="path3076" />
      <path
         d="m 162.31397,911.00626 0,1.725 -3.775,0 0,9.875 -2.05,0 0,-9.875 -3.775,0 0,-1.725 9.6,0"
         style="font-size:25px;fill:#d4aa00"
         id="path3078" />
      <path
         d="m 165.03897,924.78126 c 0.14999,0.0833 0.35833,0.15 0.625,0.2 0.28333,0.05 0.54166,0.075 0.775,0.075 0.81666,0 1.44999,-0.18333 1.9,-0.55 0.46666,-0.35 0.89166,-0.93333 1.275,-1.75 -0.93334,-1.76666 -1.80834,-3.65833 -2.625,-5.675 -0.81667,-2.03332 -1.49167,-4.05832 -2.025,-6.075 l 2.25,0 c 0.16666,0.66668 0.35833,1.39168 0.575,2.175 0.23332,0.76668 0.49166,1.55834 0.775,2.375 0.28332,0.81668 0.58332,1.64167 0.9,2.475 0.33332,0.81667 0.68332,1.60001 1.05,2.35 0.26666,-0.76666 0.51666,-1.52499 0.75,-2.275 0.23332,-0.74999 0.44999,-1.49999 0.65,-2.25 0.19999,-0.76666 0.39999,-1.54166 0.6,-2.325 0.19999,-0.79999 0.40832,-1.64165 0.625,-2.525 l 2.15,0 c -0.53335,2.16668 -1.13335,4.26668 -1.8,6.3 -0.65001,2.03334 -1.35001,3.91667 -2.1,5.65 -0.28335,0.66667 -0.59168,1.24167 -0.925,1.725 -0.31668,0.48333 -0.66668,0.88333 -1.05,1.2 -0.38334,0.31667 -0.81668,0.55 -1.3,0.7 -0.48334,0.15 -1.03334,0.225 -1.65,0.225 -0.31667,0 -0.66667,-0.0417 -1.05,-0.125 -0.36667,-0.0833 -0.61667,-0.15834 -0.75,-0.225 l 0.375,-1.675"
         style="font-size:25px;fill:#d4aa00"
         id="path3080" />
      <path
         d="m 187.21397,911.00626 0,11.6 -2.025,0 0,-8.85 c -0.45001,0.56668 -0.92501,1.23334 -1.425,2 -0.48334,0.76667 -0.97501,1.55834 -1.475,2.375 -0.48334,0.80001 -0.95001,1.59167 -1.4,2.375 -0.45001,0.78334 -0.85001,1.48334 -1.2,2.1 l -1.85,0 0,-11.6 2,0 0,8.35 c 0.38332,-0.64999 0.79999,-1.34999 1.25,-2.1 0.44999,-0.76666 0.91666,-1.52499 1.4,-2.275 0.48332,-0.76666 0.96666,-1.49166 1.45,-2.175 0.48332,-0.69999 0.95832,-1.29999 1.425,-1.8 l 1.85,0 m -4.4,-1.875 c -0.93334,2e-5 -1.69168,-0.23332 -2.275,-0.7 -0.58334,-0.48332 -0.94167,-1.14998 -1.075,-2 l 1.575,-0.425 c 0.13332,0.48335 0.34166,0.87502 0.625,1.175 0.28332,0.28335 0.66666,0.42502 1.15,0.425 0.48332,2e-5 0.86665,-0.14165 1.15,-0.425 0.28332,-0.29998 0.49165,-0.69165 0.625,-1.175 l 1.55,0.425 c -0.13335,0.85002 -0.49168,1.51668 -1.075,2 -0.56668,0.46668 -1.31668,0.70002 -2.25,0.7"
         style="font-size:25px;fill:#d4aa00"
         id="path3082" />
      <path
         d="m 196.08897,911.33126 c -1e-5,0.61668 -0.008,1.18335 -0.025,1.7 -0.0167,0.51668 -0.05,1.00834 -0.1,1.475 -0.0333,0.46668 -0.075,0.93334 -0.125,1.4 -0.05,0.45001 -0.10001,0.92501 -0.15,1.425 l -1.425,0 c -0.05,-0.49999 -0.10001,-0.97499 -0.15,-1.425 -0.05,-0.46666 -0.10001,-0.93332 -0.15,-1.4 -0.0333,-0.46666 -0.0583,-0.95832 -0.075,-1.475 -0.0167,-0.51665 -0.025,-1.08332 -0.025,-1.7 l 0,-4.2 2.225,0 0,4.2 m -1.125,11.575 c -0.45001,0 -0.84168,-0.15 -1.175,-0.45 -0.33334,-0.31666 -0.50001,-0.73333 -0.5,-1.25 -1e-5,-0.51666 0.16666,-0.925 0.5,-1.225 0.33332,-0.31666 0.72499,-0.47499 1.175,-0.475 0.46666,10e-6 0.85832,0.15834 1.175,0.475 0.33332,0.3 0.49999,0.70834 0.5,1.225 -1e-5,0.51667 -0.16668,0.93334 -0.5,1.25 -0.31668,0.3 -0.70834,0.45 -1.175,0.45"
         style="font-size:25px;fill:#d4aa00"
         id="path3084" />
    </g>
  </g>
</svg>
